<?xml version="1.0" encoding="utf-8"?>
<!-- Generator: Adobe Illustrator 22.0.0, SVG Export Plug-In . SVG Version: 6.00 Build 0)  -->
<svg version="1.1" id="图层_1" xmlns="http://www.w3.org/2000/svg" xmlns:xlink="http://www.w3.org/1999/xlink" x="0px" y="0px"
	 viewBox="0 0 612 792" style="enable-background:new 0 0 612 792;" xml:space="preserve">
<style type="text/css">
	.st0{fill:#000002;}
	.st1{fill:#00D97C;}
	.st2{fill:#01A9D4;}
	.st3{fill:#01D87C;}
	.st4{fill:#FEFEFE;}
	.st5{fill:#01A9D2;}
	.st6{fill:#EEEEEE;}
	.st7{fill:#FCFBFB;}
	.st8{fill:#01BFA1;}
	.st9{fill:#01BFA0;}
	.st10{fill:#07D17D;}
	.st11{fill:#FBDAB7;}
	.st12{fill:#03BBA3;}
	.st13{fill:#FAD9B7;}
	.st14{fill:#F8D8B7;}
	.st15{fill:#FDDBB7;}
	.st16{fill:#02A9D4;}
	.st17{fill:#CACACA;}
	.st18{fill:#C2C2C3;}
	.st19{fill:#FDDBB8;}
	.st20{fill:#FBFCFD;}
	.st21{fill:#FCFCFD;}
	.st22{fill:#03A9D1;}
	.st23{fill:#03D77D;}
	.st24{fill:#FCDBB8;}
	.st25{fill:#FBDAB8;}
	.st26{fill:#07D37C;}
	.st27{fill:#05D67C;}
	.st28{fill:#F5D40C;}
	.st29{fill:#04ACCE;}
	.st30{fill:#04A8CE;}
	.st31{fill:#C0BFC0;}
	.st32{fill:#F1D4B5;}
	.st33{fill:#139FC0;}
	.st34{fill:#E1E1E1;}
	.st35{fill:#28A7A2;}
	.st36{fill:#27A2C1;}
	.st37{fill:#0EC286;}
	.st38{fill:#C9B94A;}
	.st39{fill:#9F9E9E;}
	.st40{fill:#050304;}
	.st41{fill:#050404;}
	.st42{fill:#F6D60B;}
	.st43{fill:#F7D911;}
	.st44{fill:#030103;}
	.st45{fill:#010002;}
	.st46{fill:#070305;}
	.st47{fill:#050204;}
	.st48{fill:#020204;}
</style>
<g>
	<path class="st0" d="M345,667c-1.7,0-3.3,0-5,0c-1.9-3.1,0.2-4.9,2.1-6.8c1.5-1.5,3.7-2.2,5.5-4.7c-12,0.9-23.4,2.1-34.6,4.9
		c4.7,2.4,9.5,2.3,14.4,2c1-0.1,2-0.4,3-0.4c1.7,0,4.2-0.8,4.5,1.7c0.2,2-2.1,2.1-3.8,2.3c-6.6,1-13.3,0.4-19.9-0.2
		c-6.8-0.6-13.5,0.6-20.2,1.1c-71.3,0-142.7,0-214,0c-4-1.9-6.1-5.4-6.1-9.6c0-3.6-1-6.8-2.2-10.1c-1.9-5-2.2-10.4-3.1-15.6
		c-1.1-9.2-3.2-18.2-4.2-27.3c-3-16-5.3-32.1-7.9-48.1c-1.5-10.3-3.4-20.6-4.8-30.9c0.7-10.9,6.4-16.2,18.3-16.6
		c11.3-0.3,22.6,0,33.9-0.1c1.8,0,3.6,0.5,5.7-0.8c-10.7-15.1-15.7-32.3-18.9-50.3c-2.4-12.4-2.3-24.9-1.9-37.3
		c1.4-11.7,4.6-22.8,11.8-32.4c4.3-5.7,9.4-10.4,15.9-13.3c4.2-1.9,5.9-4.5,5.2-8.9c-0.2-3.8,0.2-7.6,0.8-11.4
		c2.1-24,8.3-46.9,20-68.1c4.7-8.8,10.7-16.7,16.8-24.6c14.2-15.7,30.8-28.1,49.8-37.3c5.4-2.1,10.5-5.2,16.2-6.6
		c17.5-5.6,35.3-9.8,53.8-11c1.2-0.1,2.3-0.5,3.4-0.7c7.1-0.9,14.3,0.6,21.4-1.1c4-0.3,7.9-0.4,11.9,0.1c3.4,1.1,6.9,0.8,10.4,0.7
		c5.5-0.1,10.9,0.2,16.3,1c17.1,1.5,33.8,4.7,50.1,10c4.8,1.6,9.5,3.6,14.3,5.2c19.8,8.9,38,20.1,52.6,36.5
		c7.8,8.4,14.3,17.7,19.9,27.8c11.5,20.3,16.5,42.5,18.9,65.5c0.1,4.6-0.1,9.1,0,13.7c-0.7,4.6,1.4,7.2,5.5,9.3
		c14,7.1,21.6,19.2,25.3,34.1c2.6,10.3,2,20.8,2.1,31.3c0,1.6,0,3.3-0.2,4.9c-0.8,3.6-1.1,7.3-1.7,11c-1.9,11.7-4.7,23.1-9.2,34
		c-5.6,13.7-13.7,25.4-27.8,31.8c-1.9,0.6-3.8,1.4-5.7,2.2c-2.1,0.5-4.1,1.2-6.2,1.5c-6.3,1-12.6,1.8-18.9,0.2
		c-5-1.1-10-2.4-15.2-2.5c-5.7,0-9.4-3.9-12.3-8.4c-2.4-3.8-3.9-8.1-4.3-12.7c-4.1,8-8.8,15.6-13.9,23c-3.4,4.2-7.1,8.2-10.3,12.6
		c-7.1,7.2-14.9,13.4-23.3,19.1c-2.2,1.4-4.4,2.7-7.3,4.4c1.7,0.7,3.1,0.9,4.3,1.4c16.4,7.8,25.7,22.1,33.4,37.6
		c0.8,1.6,1.3,3.4,2.2,5c3.8,8.7,8,17.2,7.3,26.6c1-3.4,4.6-4.4,7.3-6.3c6.7-1.2,8.6-6.1,9.3-11.9c1.1-2.5,2.6-4,5.3-1.9
		c1.8,2.4,0.5,5.4,1.9,8.3c1.2-1.6,1.1-3.4,1.7-4.9c0.7-1.5,1.3-3.4,3.3-3.3c2.3,0.1,2.8,2,3.1,3.9c-0.5,4.9,1.8,7.7,5.3,11.3
		c6.6,6.6,14.3,11.5,21.7,16.8c6.1,4.4,9.1,11.3,11.4,18.3c0.6,1.8,0.7,3.6-0.7,5.2c-3,0-6,0-9,0c-1.5-1.4-1.8-3.5-2.6-5.3
		c-2.1-5-5.2-9.2-10.2-11.7c-1.3-0.7-2.8-1.9-4.1-0.7c-1.5,1.5,0.3,2.7,1.1,3.7c2.7,3.1,3.9,6.9,5.1,10.7c0.3,1.1,0.7,2.3-0.3,3.3
		c-2.3,0-4.7,0-7,0c-0.9-0.8-1.2-1.9-1.7-3c-2.5-6-6.5-9.4-13.5-8.7c-3.8,0.3-7.6,0.2-11.5-0.3c-4.2-0.5-8.3,1.9-10,5.8
		c-0.4,0.9-0.9,1.9-0.2,2.8c0.8,0.8,1.9,0.5,2.8,0.2c2.3-0.7,4.2-1.9,6.2-3.2c2.2-1.5,4.7-2.5,6.6,0.2c1.8,2.6,0.7,4.7-1.8,6.2
		c-7.3,0-14.7,0-22,0c-1.3-0.7-2.1-2-2.9-3.3c-1.2-1.9-3.1-2.9-5.1-3.6c-2.1-0.8-3.6,0-5.3,1.4c-2.6,2.1,0.3,3.7,0.3,5.5
		c-5.7,0-11.3,0-17,0c1.6-4.5,5.8-7.7,6.8-12.9c-1.6-0.6-3.4,0.1-5.1,0.2c-7.9,0.4-7.9,0.5-7.5,8c0.1,1.7,0.2,3.3-1.2,4.6
		c-5,0-10,0-15,0c-2.6-4.8-1.8-10.1-2.1-15.1c-0.8-14.2-3.2-28.1-4.6-42.2c-0.5-5.1-1.1-10.3-1.8-15.4c-0.2-1.3,0.1-2.9-1.4-3.5
		c-1.5-0.6-2.3,0.9-3.2,1.8c-4.6,4.3-8.7,9.2-13.9,12.9c-13.8,9.8-28.9,13.5-45.4,8.9c-3.9-1.1-4.4,0-3.6,3.4c0.5,1.9,0.4,4,0.9,5.9
		c2.1,8.5,3.9,9.9,12.5,9.9c4.5,0,9-0.1,13.5,0.1c2.2,0.1,3.7-0.2,4.5-2.7c1.1-3.4,4.2-4.7,7.4-5.1c8.7-1.2,16.6,0.9,23.7,5.8
		c3.1,2.1,6.1,4.8,5,9c-1.2,4.4-5.1,5.4-9.1,5.6c-5,0.3-10,0.2-14.8-1.7c-1-0.4-2.2-1.3-3.2-0.1c-0.8,0.9-0.5,2.3-0.2,3.4
		c0.5,1.5,1.8,1.2,2.9,1c2.8-0.3,5.7-0.1,8.5-0.7c2.5-0.5,5-0.6,7.5-0.5c3.7,0.3,7.8,0.6,9,4.8c1.3,4.3-1.6,7.2-4.7,9.7
		C350.2,664.1,347.7,665.6,345,667z"/>
	<path class="st1" d="M37,203c0-23.8,0.1-47.6-0.1-71.4c-0.1-4.3,1.2-4.7,5-4.7C114.9,127,188,127,261,127c0.8,0.8,0.9,1.7,0.7,2.7
		c-0.2,0.7-0.6,1.3-1,1.9c-4.1,5.7-7,12-10.5,18c-0.2,0.4-0.4,0.8-0.7,1.2c-3,5-5.6,10.3-8.6,15.3c-0.4,0.8-0.8,1.6-1.3,2.4
		c-5.3,8.6-10.3,17.4-15.1,26.3c-0.2,0.4-0.5,0.8-0.7,1.1c-1.5,3.1-3.5,5.8-5.7,8.4c-3.1,0.9-3.9-2.3-5.8-3.4
		c-4.2-5.8-6.9-12.4-10.5-18.6c-9.5-16.2-18.6-32.6-27.8-48.9c-2.1-3.8-3.1-3.9-5.2,0c-7.7,14.2-15.6,28.2-23.5,42.2
		c-4.7,8.2-8.9,16.7-14.1,24.6c-1.8,1.4-2.4,4.3-5.4,4.3c-0.5-0.1-0.9-0.4-1.2-0.7c-1.9-3.2-3.1-6.7-5.4-9.6
		c-6.1-7.7-9.9-16.9-14.7-25.4c-6.7-11.8-13.4-23.8-20-35.7c-2-3.6-2.6-3.5-4.7,0.2c-12.6,21.9-25.3,43.7-37.6,65.9
		c-0.5,0.9-1.1,1.7-1.9,2.3C39.1,202.3,38.4,203.5,37,203z"/>
	<path class="st2" d="M249,150c3.2-6.6,6.5-13.2,11-19.1c0.4,0.1,0.9,0.6,1.2-0.1c0.1-0.2-0.2-0.6-0.3-0.9c0-1,0.1-2,0.1-3
		c0.3,0,0.7,0,1,0c0.6,0.4-0.1-0.2,0.4,0.3c5.9,6,9.9,13.1,12,21.3c-1,1.4-2.8-0.1-4,1c1.9,1.3,2.8-0.3,3.9-0.9
		c2.6,1.1,3.8,2.8,3.2,5.7c-4,0.5-0.5,2.8-1.1,4.2c0.6-1.2-0.8-2.8,0.9-3.8c3.4,0.6,4,3.8,5.4,6.1c4.1,6.3,7.3,13.1,10.9,19.6
		c0.7,1.3,1.5,2.7,0.7,4.3c-1.7,1.5-2.7,0.2-3.6-1c-1.2-1.5-2.1-3.2-3.6-4.4c1.1,3.2,3.2,5.6,5.2,8.1c1.2-0.6,0.9-2,1.8-2.5
		c5.5,2.9,7,8.2,8.2,13.7c-0.6,1.4-2.3,1.1-3.3,2.2c1.5,1.9,2.9,0.2,4.3-0.1c2.4,2,3.8,1.6,5.5-1.4c13-22.7,25.4-45.8,38.6-68.4
		c0.9-1.6,2-3,3.6-4c0.3,0,0.7,0,1,0c5.6,6.9,9.4,14.9,13.8,22.5c7.7,13.4,15.5,26.8,23,40.3c2.3,4.2,5.1,8.2,6.3,13
		c0,4.3-3.1,4.6-6.2,4.6c-12,0.1-24,0-36,0c-13.3-0.6-26.7-0.8-40-1.3c-4,0-8,0-12-0.1c-15.1,0.4-30.1,1.3-45.2,1.4
		c-11,0-21.9,0.1-32.9-0.1c-2.1,0-5.4,0.8-5-3.4c0.4-3.7,4-5.6,5-9c1.6,4.7,4.4,6,9.1,4.1c3.1-1.2,6.6-0.4,9.9-0.4
		c7.8,0,15.7,0,23.5,0c3.8,0,7.5,0,11-2.2c3.4-2.1,7.9,0.1,12.3-2c-4.8-1.1-8.8-0.3-12.6,0.8c-2.9,0.9-5.3,0.6-7.2-1.8
		c-1.9-2.4-1.7-5,0.2-7.3c1.6-1.9,1.7-3.8,1-6c-0.7-2.2-1.1-4.6-1.3-6.9c-0.4-4.3-1.5-7.7-6.4-8.8c-2.6-0.6-3.2-3.5-4.7-6
		c-2.5,3.8-4.3,7.1-7.9,9.4c-2.7,1.7-1.3,4.7,0.2,7.1c2.8,4.4,3.4,9,1.1,13.7c-0.9,2-2,4.3-4.7,3.6c-2.3-0.6-1.5-3-1.5-4.8
		c0-0.6,0.2-1.3-0.4-1.8c-0.4,0-0.7,0.2-0.7,0.6c0.3,6.5,0.3,6.5-6.1,8.5c-2.2,0.7-4.1,2.2-6.4,2.9c-3.5,1-6.6,0.9-8.7-2.6
		c4.7-8.3,9.4-16.6,14.1-24.9c0.5-0.8,1.2-1.5,1.8-2.3c2.5,3.6,3.8,7.3,1.5,11.5c-1.1,2.2-3.2,0.9-4.8,1.4c0.1,1.6,1,2.6,2,3.8
		c1-1.4,0.8-3.2,2.1-4.3c4-3.4,2.2-8.2,3.1-12.4c0.4-2-1.9-1.2-2.9-1.9C242.6,160.4,245.1,154.9,249,150c0.6,0.4,1.3,0.5,1.9,0.9
		C250.4,150.2,249.6,150.4,249,150z"/>
	<path class="st2" d="M120.7,353.8c-0.3,4.1-0.5,8.1-0.8,12.2c-1.9,1.9-4.3,1.6-6.6,1.6c-22.5,0-44.9,0.1-67.4,0
		c-3.2,0-6.4,0-8.8-2.6c0-0.7,0-1.3,0-2c5.5-12.6,13.4-24,19.8-36.1c6.8-12.9,14.9-25.1,21.4-38.1c6-10.6,12.5-21,18.1-31.9
		c1-2,1.9-4.3,4.4-5.1c1.3,0,1.6,1.3,2.6,1.9c0.1-1.4-1.3-1.6-1.7-2.5c-1.1-2.7,0.5-4.9,1.8-6.8c2.7-4.1,4.8-8.6,7.4-12.7
		c0.2-0.4,0.4-0.8,0.6-1.2c2.4-4.9,5.7-9.3,8-14.3c0.6-1,1.4-1.9,2.1-2.9c0.6-0.8,1.1-1.6,1.8-2.4c3-3.2,3.8-3.1,6.8,0.5
		c0.9,1.2,2.1,2.2,1.1,3.9c-0.7,0.5-1.5,0.7-2.4,0.6c-3.7-0.3-4.3,1.6-3.5,4.6c0.3,1.1,0.8,2.2,1.2,3.3c0.5,1.6,0.4,3-1.1,4
		c-1.3,0.8-2.4,0.6-3.5-0.6c-2.3-2.5-2.6-0.2-2.9,1.4c-0.8,4.3,2.3,9.1,7.3,9.7c5.2,0.6,5.7,3.3,5.1,7.5c-0.3,1.8-0.8,3.6-0.6,5.4
		c0.2,1.5,1,2.7,2.5,2.5c1.7-0.1,2.1-1.7,1.7-3c-1-3.1-0.3-6.3-0.6-9.4c-0.1-1-0.1-2,0.2-3c0.6-1.8,1.3-4,3.4-3.6
		c2.7,0.5,1.6,2.7,1.2,4.4c-1.1,4.5-0.2,8.6,2.2,12.4c1.9,3,3,6.3,3.7,9.7c0.7,4-0.4,5.6-4.4,5.6c-1.9,0-1.4,0.6-1.2,1.6
		c0.1,1-0.1,2-0.4,2.9c-1.3,3.5-3.9,4.3-6.3,1.5c-1.9-2.2-3.9-2.7-6.5-2.8c-6.5-0.1-13,0.5-19.4-0.6c-0.7-0.1-1.4-0.2-2,0.2
		c-3.3,2.3-6.4,1.8-9.8-0.8c2.2,5.8-0.8,8.6-4.8,11.3c-2.3,1.5-2.9,4.8-5,6.7c-0.5,1.8,0.5,3.3,1.3,4.7
		c5.9,10.4,11.9,20.7,17.6,31.2C109.3,333.2,116.3,342.8,120.7,353.8z"/>
	<path class="st1" d="M527.1,439.9c0.1-12.5,0.2-24.9-4-36.9c-4.6-13.2-12.8-23.2-25.8-28.8c-4.5-1.9-3.3-5-2.8-8.2
		c1.4-1.5,3.3-1.5,5.1-1.5c23.5,0.1,46.9,0,70.4,0c5.3,0,6.1,1.1,4.9,6.3c-4.4,7.6-8.8,15.3-13,23.1c-0.7,1.2-1.5,2.5-2.3,3.7
		c-4.9,8.3-9.6,16.8-14,25.5c-0.2,0.5-0.5,0.9-0.8,1.3c-2.8,4.9-5.2,9.9-8.4,14.6c-2.1,3.2-1.5,4.4,2.5,4.5
		c10.4,0.2,20.8,0,31.3,0.1c2.3,0,4.7-0.3,6.6,1.4c0,1.3,0,2.7,0,4c-1,1.1-2.3,1.3-3.7,1.2c-7.7-0.3-15.6,1.1-23.6-1.5
		c0.5,2.2,2.2,3.3,2.6,5c0.3,1.2,0.6,2.3,2,0.6c0.8-1,2.1-1,3.1,0c1.2,1.1,2.3,1,3.5,0c1.4-1.2,3-1.5,4.5-0.2c1.8,1.5,2,3.6,1.1,5.5
		c-1.4,2.7-0.9,4.7,0.2,7.4c1.3,3.1,1.5,6.7,0.4,10.2c-1.8,5.7,0.3,8.3,6,7.3c1.3-0.2,2.6-0.6,3.7,0.5c0,12.7,0,25.3,0,38
		c-3.1,0.4-4.4-2-5.6-4.1c-12.5-22.5-25.2-44.8-37.9-67.1c-0.8-1.4-1.8-2.8-0.7-4.6c0.5-0.6,1.3-0.6,2-0.6c-0.6-0.2-1.1-0.1-1.6,0.3
		c-2,1-3.3,2.4-4,4.6c-0.7,1.9-1.2,4.1-3.8,4.5c0.6-3.7,1.2-7.4,1.8-11c2.9-2.2,0.5-5.7,1.9-8.1c0.2-0.8-0.7-0.8,0-0.6
		c0,0,0.1,0.2-0.1,0.4C527.7,437.4,529.8,439.9,527.1,439.9z"/>
	<path class="st2" d="M573,372c-0.1-1.3,0.8-2.1,1.4-3.1c1-1.9,0.2-2.8-1.8-2.9c-1-0.1-2,0-3,0c-25,0-50.1,0-75.1,0.1
		c-0.2-5-0.3-10-0.5-15c1.2-1.6,1-4.3,3.9-4.4c6.7-1.8,9.1-6.7,5.7-11.8c0.5-3.7,2.1-6.7,5-9.1c0.8,0.1,1.8,1.2,2.1,0.8
		c0.9-1.2-0.9-1.7-1-2.8c1.3-5.2,3.8-9.6,7.9-13.1c0.7,0.1-0.2-0.1,0.5,0.1c1.8,0.5,3.9,0.6,4.5-1.4c0.5-1.9-2.3-1.3-2.9-2.7
		c0.3-4.4,2.3-7.7,6.1-10c2.2,0.5,3.8,1.9,5.2,3.6c-1.6-2.6-1.8-5.7-3.2-8.3c0.6-4.6,3.6-8.1,5.7-12.1c3.6-5.4,6.7-11.1,9.5-16.9
		c0.2-0.4,0.3-0.9,0.5-1.3c3.4-4.8,5.5-10.3,8.9-15c5.9-11,12.7-21.5,18.4-32.6c0.7-1.3,1.4-2.7,2.5-3.7c1.1-0.9,2.1-2.4,3.8-1.2
		c0,25.7,0,51.3,0,77c-1.8,1.7-4,1.4-6.2,1.4c-10.2,0-20.3,0-30.5,0c-5.1,0-5,0.3-3.6,5c0.9,3,3.5,4.9,3.9,8
		c-0.7,2.8-4.9,3.1-4.4,7.6c1.2-2.9,2-5.1,4.1-6.2c0.3,0,0.8,0,0.9,0.2c4.8,7.1,10.1,13.9,12.3,22.5c-2.3,2-0.6,5.3-2.5,7.5
		c-0.7,0.8-1.7,1.4-2,2.6c1.7,0,0.9-1.9,1.8-2.4c2.1-1.1,2.1-3.6,3.2-5.3c4.3,3.6,7.7,7.8,8.4,13.6c-0.4,0.7-1.1,0.9-1.9,1.1
		c0.8,0.1,1.2-0.5,1.8-0.7c3,1.6,4.1,4.6,5.7,7.3c2.8,5.1,5.2,10.4,8.9,14.9c0,3.7,0,7.3,0,11C574.7,375.3,573.9,373.7,573,372z"/>
	<path class="st2" d="M531,127c0.3,0,0.7,0,1,0c3.5,3,5.2,7.3,7.3,11.1c10.5,19.4,21.9,38.2,32.7,57.4c0.7,1.2,1.2,2.4,1.5,3.7
		c2.6,6.5,1.6,8.1-5.4,8.1c-25.1,0.1-50.3,0.1-75.4,0c-6.1,0-6.5-0.8-4.4-6.2c6.2-12.9,13.7-25.1,20.4-37.8
		c5.8-10.9,12.7-21.1,18.3-32.1C527.9,129.4,529.2,128,531,127z"/>
	<path class="st2" d="M441,127c0.3,0,0.7,0,1,0c3.8,2.1,5,6.1,7,9.5c11.2,19.2,21.5,39,32.7,58.2c1.5,2.6,3.1,5.1,3.5,8.2
		c-0.1,3.9-2.8,4.4-5.8,4.5c-7.8,0.1-15.6,0-23.4,0c-17.4,0-34.8,0.1-52.3,0c-3,0-6.9,0.5-6-4.7c2.2-7.3,7-13.2,10.6-19.7
		c9.9-17.5,19.9-35,30.1-52.4C439.1,129.4,439.9,128.1,441,127z"/>
	<path class="st1" d="M441,127c-1.5,6.1-5.6,10.8-8.5,16c-10.9,19.5-22.2,38.7-33.4,58c-0.9,1.2-0.8,3.4-3,3.4
		c-2.2-0.1-0.9-2.5-2.1-3.4c-5.4-9.3-10.8-18.6-16.2-27.9c-8.4-14.6-16.7-29.2-25-43.8c-0.4-0.7-0.5-1.6-0.7-2.4
		C381.7,127,411.3,127,441,127z"/>
	<path class="st1" d="M274,149c0.4-2.3-1.1-3.9-2.3-5.3c-4-5.2-5.4-11.7-9.8-16.6c29.7,0,59.3,0,89,0c-8.4,14.7-17.4,29.1-25.2,44.2
		c-5.2,10-11.3,19.4-16.3,29.5c-2.7,5.6-2.9,5.5-6.5,0.3c-0.7-0.4-1.1-1.1-1-1.9c-2.1-5-4.3-10-8-14l0,0c-4.9-10.5-10-20.8-17-30
		l0,0C277.3,152.4,275.5,150.8,274,149L274,149z"/>
	<path class="st1" d="M483.9,201c-7.3-12.2-14.1-24.7-20.9-37.2c-6.8-12.4-14-24.6-21-36.8c29.7,0,59.3,0,89,0
		c-10.5,18.9-21.8,37.3-31.9,56.5c-2.9,5.6-6.1,11-9.1,16.5c-0.4,0.5-0.8,1.1-1.1,1.6c-0.7,1.2-1.2,2.9-3,2.8
		C483.8,204.3,485.1,201.9,483.9,201z"/>
	<path class="st2" d="M533,447c1.1,5.3,4.6,9.4,7.1,14c10.6,19.3,21.4,38.4,32.3,57.6c1.1,1.9,2.6,3.5,4.6,4.5c0,4.3,0,8.7,0,13
		c-2.9,1.5-4.9,3.7-6.9,7.3c3.3-1.7,5.5-1,6.9,1.7c0,2,0,4,0,6c-1.1,1.4-3.5-0.1-4.4,2.2c1.5,1.4,3-1.2,4.4-0.2c0,3,0,6,0,9
		c-3.3,1.8-4.6,4.3-3.2,8.2c0.9,2.3-0.1,4.6-2.3,6c-1.9,1.1-3.8,1.2-5.2-0.9c-0.8-2.3-1.1-4.7-2.9-6.7c-2.4-2.6-0.9-5.2,0.9-7.6
		c0.4-1.4,4.9-0.4,2.2-3.7c-1.1-1.1-1.5-2.4-1.5-3.8c0.6-2.1,1.2-4-2.2-3.7c-0.2,0-0.3-0.9-0.3-1.4c1.6-6.1,5.9-10.7,8.5-16.3
		c2.3-5,2.1-5.5-3.5-5.6c-24.6-0.1-49.2,0.1-73.8-0.1c-1,0-2,0.1-3,0c-1.8-0.2-3.9-0.3-4.5-2.4c-0.5-1.9,2-1.9,2.7-3.1
		c18.6-9.8,26.8-26.8,32-45.9c1.7-6.2,2.9-12.6,4.4-18.9c1.3-1.9,2.4-3.7,3.2-6C528.9,448.4,529.5,445,533,447L533,447z"/>
	<path class="st1" d="M37,365c4.7,1.2,9.6,1,14.4,1c22.8,0,45.6,0,68.5,0c1.1,4.5-0.4,6.9-4.8,9.1C98.8,382.9,91,397,88,414.2
		c-0.3,1.6-0.7,3.2-1,4.8c-0.9,5.2-0.3,10.4-0.4,15.6c0,2.9-0.8,5.5-2.6,7.7c-1.1,1.4-2.4,2.4-4.1,0.9c-3.8-4.2-6.1-9.5-8.8-14.4
		c-9.7-17.2-19.8-34.2-29.1-51.7c-1.3-2.4-3.6-3.9-4.8-6.3C37,369,37,367,37,365z"/>
	<path class="st3" d="M489,667c-1.2-13.1-8.2-22.1-19.8-27.7c-3.6-1.7-6.5-3.7-8.5-7.1c-1.2-2.2-3.1-4.1-5.3-5.1
		c-5-2.1-5.9-5.8-5-10.5c2.1-0.3,2.8,1.8,4.4,2.4c2.8,2.1,4.1,0.9,4.7-2c0.4-2.3,0.1-4.5-0.3-6.8c-0.4-2.1-0.7-4.2,0.9-6
		c1.4-1.2,3-1.3,4.7-1.2c19.5,1.4,39,0.2,58.5,0.7c3.7,0.1,5.3-1.2,4.1-5c1.4-3.8,4.5-3.6,7.7-3.4c0.5,0.2,0.9,0.4,1.2,0.8
		c0.9,2.2-1,3.7-1.3,5.7c-0.2,1.4,0.6,1.9,1.8,2c11.2,0,22.4,0,33.6,0.1c2.3,0,4.7-0.4,6.6,1.4c0,1,0,2,0,3c-1.3,1.3-3,1.3-4.7,1.2
		c-8-0.6-15.9,1.5-24.8-0.3c3.1,3.6,4.2,7,3.7,10.9c-0.1,1.2,0.3,2.4,1.3,3.1c2.2,1.4,3.3,3.5,4.2,6.2c0.9-2-0.3-3-0.8-4.1
		c-0.7-1.5-0.8-3,0.6-4c1.6-1.2,3.1-0.7,4.5,0.5c5.6,4.5,7.2,10.8,4.6,18.4c-0.8,2.2-1.6,4.4-3,6.3c3.1-0.7,4.2,0.8,4,3.6
		c-0.4,5.9-0.4,5.9,2.2,11.5c1.5-6.4,3.2-7.4,7.9-4.3c0,3.3,1.3,8-0.4,9.6c-1.7,1.7-6.3,0.4-9.6,0.4c-0.7,0-1.3,0-2,0
		c-5.7-10.3-11.4-20.6-17.1-30.8c-0.8-1.4-1.8-2.9-1.4-4.7c0-1.4,3,0,2.1-2.2c-0.8-1.8-2.2-2.1-3.9-1c-4.1-3.6-6-8.6-8.5-13.1
		c-4.3-7.8-4.3-7.9-8.9-0.5c-5.4,8.7-10,17.9-15.2,26.7c-0.4,0.3-0.9,0.6-1.3,0.6c-3.6,0.2-8.2,1.9-10.3-1.1
		c-1.9-2.7,1.8-5.9,3.3-8.7c2.2-4.1,4.9-7.9,6.8-12.1c0.7-1.7,1.5-3.5,0-5.1c-1.5-1.7-3.4-1.1-5.1-0.4c-8.8,3.4-17.4,7.4-24.1,14.5
		c-1.9,2-3,4,1.2,4.5c3.8,2.1,6.2,5.8,9.6,8.3c1,2.2,1.9,4.4,4.2,5.7c1.8,1.7,3.4,3.6,4.8,5.6c0.3,1.8,0.3,3.6,0.4,5.4
		c-0.4,3.5-2.6,6.1-4.7,8.7C494.3,667,491.7,667,489,667z"/>
	<path class="st4" d="M345,667c0.4-2.1,2.2-2.8,3.7-3.7c2.3-1.4,4.5-2.9,6.1-5.1c3.2-4.3,2-7.7-3.3-8.7c-6.7-1.2-13.3,0.4-19.9,0.9
		c-1.5,0.1-2.9,0.4-5,0.7c1-3.5,1.5-6.7-0.4-10.7c7.6,3.6,14.4,5.6,21.8,4.7c3.1-0.3,6-1.1,7.2-4.4c1.2-3.5-1.2-5.7-3.5-7.5
		c-7.2-5.5-15.5-7.3-24.4-6.2c-5,0.6-6.8,3.6-5.6,8.3c-7.7-1.1-15.5-0.4-23.2-0.6c-3.2-0.1-5.1,0-7.4-4.2
		c-3.4-6.3-2.3-12.8-5.3-19.9c14.1,5.4,26.9,5.3,39.7,0.2c12.7-5,20.8-15.6,31.2-24.8c1.4,10.9,2.8,21,3.9,31.2
		c1.7,15.5,3.8,31,4.4,46.7c0,1-0.1,2-0.1,3C358.3,667,351.7,667,345,667z"/>
	<path class="st2" d="M511.9,640.7c0-2.5,1.6-4.2,2.8-6.2c5-8.7,9.9-17.5,14.7-26.3c1.7-3.2,3-1.7,4.2,0.2
		c3.9,6.5,7.6,13.1,11.4,19.7c1.4,0.5,2.6,1.2,2,3c4.8,10.9,11.5,20.8,17,31.3c0.8,1.6,1.2,3,1.1,4.7c-22.7,0-45.3,0-68,0
		c-0.1-3.6,3.5-5.5,4-8.9c4.9-1.3,9.1-4,13.5-6.3c1.9-1,3.7-2.2,5.2-3.9c2.5-2.9,1.9-4.7-1.8-5.6C515.8,641.9,513.4,643,511.9,640.7
		z"/>
	<path class="st1" d="M101,252c-5.9,10.2-11.8,20.3-17.7,30.4c-1.3,2.3-2.8,4.5-4.2,6.7c-11.8-0.9-23.6-0.5-35.4-0.6
		c-2.3,0-4.7,0.2-6.6-1.5c0-0.3,0-0.7,0-1c1.8-1.6,4-1.3,6.2-1.3c10.2,0,20.3,0,30.5,0c4.6,0,5.3-1,3-4.9
		c-11-18.8-21.5-37.9-32.4-56.8c-2.3-3.9-4.4-7.8-6.1-12c-0.1-1.8-0.7-3.9,2.2-4.4c2.3,0.8,2.6,2.7,2.9,4.7c0.2-1.6,0.3-3.4,1.8-4.6
		c1.2-0.7,2.4-0.7,3.7-0.3c5.2,3.1,8.7,7,7.4,13.8c-0.8,4.1,2.9,6,4.8,8.8c0.8,1.1,1.8,0,2.4-0.8c1.1-1.5,2.1-3,3-4.6
		c0.6-1.1,1-2.8,2.7-2.4c1.6,0.3,2.7,1.6,2.8,3.2c0.2,6.3,2.2,12.9-2.6,19c2.5-2.8,4-2.3,5.9,0.6c3,4.5,6,4.1,8.5-0.8
		c1.3-2.6,2.9-4.7,5.4-6.4c3-2,4.9-4.6,3.4-8.9c-1.4-4,1.2-6.3,5.5-5.5c0.9,0.2,1.6,1.2,2.7,0.6c-1.1-8.7,0.6-11,9.3-12.3
		c3.1-0.5,5.7-1.7,7.8-3.9c0.9-0.5,1.9-0.5,2.9-0.2c1.4,0.8,2.1,2.1,2.6,3.5c0.1,0.8-0.3,1.3-1,1.8c-0.4,1.6-5.9,0.6-2.3,4.3
		c-1.5,5.6-5.4,10-8.1,15c-1.7-1.6-2-3.7-1.8-5.9c-1.6,2.7,0.1,4.3,1.8,5.9c-3,5.4-5.9,10.9-8.9,16.3c-0.7,1.2-1.1,2.3-1.2,3.7
		C101.7,251.4,101.4,251.8,101,252z"/>
	<path class="st1" d="M572,198c-7.5-13-15.1-26-22.5-39c-6-10.6-11.7-21.3-17.5-32c14,0,28,0.1,42-0.1c2.5,0,3.1,0.6,3.1,3.1
		c-0.1,24.3-0.1,48.7-0.1,73C573.6,203,573.3,200.1,572,198z"/>
	<path class="st2" d="M39,211c7.6,13.4,15.2,26.7,22.9,40.1c5.1,8.9,10.2,17.8,15.2,26.7c0.7,1.2,1.3,2.3,1.9,3.5
		c1.9,3.5,0.7,4.8-3.1,4.8c-9.7-0.1-19.3,0-29,0c-3.3,0-6.7,0-10,0c0-25.3,0-50.7,0-76C38.1,209.4,38.4,210.5,39,211z"/>
	<path class="st1" d="M37,519c0-24.3,0-48.7,0-73c1.5-1.4,3.3-1.4,5.1-1.4c10.9,0,21.9,0,32.8,0c1.8,0,3.7-0.1,5.1,1.4
		c1.4,3.5-0.8,6.1-2.4,8.7c-10.9,18.8-21.2,38-32.2,56.8c-1.5,2.5-2.1,5.7-4.9,7.4C39.4,519.5,38.2,520,37,519z"/>
	<path class="st1" d="M37,287c13.3,0.1,26.5,0.2,39.8,0.2c1.6,0,2.1,0.6,2.3,2c-3.4,9.4-9.5,17.4-14.1,26.1
		c-8,15-16.8,29.6-25.2,44.3c-0.7,1.3-1.2,2.8-2.8,3.4C37,337.7,37,312.3,37,287z"/>
	<path class="st2" d="M37,371c3.1,1.5,4.9,4.1,6.6,7.1c10.1,18,20.4,35.8,30.5,53.7c1.9,3.4,3.5,7.1,5.8,10.3c1,2.6-0.6,3.4-2.6,3.2
		c-12.2-0.6-24.4-0.1-36.6-0.3c-1.3,0-2.7-0.1-3.7-1C37,419.7,37,395.3,37,371z"/>
	<path class="st1" d="M62.4,604.3c1.7,9.2,3.4,18.4,4.4,27.7c-5.9,12-12.4,23.8-19.8,35c-3.3,0-8,1.3-9.6-0.4
		c-1.7-1.7-0.4-6.3-0.4-9.6c0-17.3,0-34.7,0-52c1.2-1.1,2.6-1.5,4.1-1.4C48.2,603.8,55.4,602.6,62.4,604.3z"/>
	<path class="st2" d="M62.4,604.3c-8.4,1.5-17,0.1-25.4,0.7c0-25.3,0-50.7,0-76c3.2,0,4.4,2.7,5.6,4.8c4.2,7.2,8.6,14.4,12.1,22
		C57.3,572,59.9,588.1,62.4,604.3z"/>
	<path class="st2" d="M573,372c1.4,0.6,2.2,2.1,4,2c0,0.3,0,0.7,0,1c-1.5,1.3-3.1,2.7,0,4c0,1.3,0,2.7,0,4c-0.8,0.7-1,1.6-1,2.7
		c0.1,1.5,1.2,3.4-1.2,4.1c-2,0.6-3.9,0.6-5.4-1.3c-0.4-0.5,0-2.6-1.6-1.1c-0.7,0.6-1.5,1.9-0.2,2.5c5,2.3,1.3,5.5,0.9,8.7
		c3.3-1,3.6-7.2,8.4-4.5c0,9,0,18,0,27c-7.5,2.1-15.1,3.2-22.7,1.3c-0.6,0.4-0.7,0.9-0.3,1.3c3.3,2.8,2,4.7-1.5,5.1
		c-6.3,0.7-7.9,6.4-11.5,9.9c-0.4,0.4-0.1,1.3,0.7,2.4c1-3,3-4.4,5.8-4c8.1,1.3,16.2,0.4,24.3,0.7c1.8,0.1,3.7-0.1,5.1,1.3
		c0,2,0,4,0,6c-13.5,0-26.9-0.1-40.4,0c-3.4,0-4.5-1.2-2.7-4.1c3.8-5.9,6.4-12.6,11-18.1c0.8,0.4,1.1,1.6,2.3,1.4
		c-0.4-1.1-1.7-0.6-2.3-1.4c1.6-5.9,5.6-10.8,8.1-16.3c1.6-3.4,3.9-6.5,5.9-9.7c2.3,0.1,2.2-1.4,1.9-3
		C564.4,386.3,568.7,379.2,573,372z"/>
	<path class="st1" d="M540,302c-1.9-3.7-3.7-7.5-5.7-11.1c-0.6-1.2-1.7-2.2-1.1-3.6c0.8-1.8,2.5-1.2,3.9-1.3c13.3,0,26.6,0,39.9,0
		c0,0.3,0,0.7,0,1c-0.9,0.9-2,1.2-3.2,1.2c-9.6,0-19.3,0.6-28.9-0.4c-2.5-0.3-4.5-0.3-5.5,2.5c3.1-3.4,5.1-3.6,8.3-0.6
		c2.7,2.5,5.2,5.2,4.4,9.5c-0.2,1.2,5.4,3.6,6.9,2.7c2.8-1.6,5.5-3.2,7.7,0.4c2,3.4,0,6-2.3,8.4c-0.3,0.4-0.7,0.7-0.7,1.3
		c1.2,0.8,1.7-0.4,2.4-0.9c2.6-1.6,4.8-1.2,6.4,1.3c1.6,2.4,0.4,5.9-2.1,7.2c-1.3,0.7-3.9,0.1-3.7,2.5c0.2,2.5,2.2,4.1,4.7,4.5
		c2.7,0.4,4.5,1.9,5.6,4.3c0,6.3,0,12.7,0,19c-2,2-2,4,0,6c0,2.3,0,4.7,0,7c-4.8-0.9-4.9-5.7-6.9-8.7c-2.8-4.3-4.6-9.3-8.1-13.3l0,0
		c-1.2-5.5-5.4-9.4-8-14.1c-0.8-0.4-1.1-1-1-1.9C549.6,316.8,544.9,309.3,540,302L540,302z"/>
	<path class="st1" d="M577,657c-5.6-1.4-5.9-1.3-6,4.3c0,1.1,0.2,2.6-1.2,3c-1.6,0.4-2.5-1.2-2.6-2.4c-0.2-4.2-5.7-7.9-1.3-12.6
		c0.5-0.6,0-2.1-1-2.5c-1-0.4-1.4,0.5-1.8,1.2c-0.5,0.8-1,2-2.2,1.1c-1-0.8-0.5-1.8,0.2-2.6c4.1-4.4,4-10.2,4.9-15.6
		c0.3-1.8-5.2-9.3-6.9-9.7c-0.9-0.2-1.6,0.1-2.2,0.7c-0.6,0.7-0.6,1.5,0,2.2c0.7,0.9,1.7,1.8,2,2.8c0.4,1.7,0.8,4.1-1.5,4.6
		c-2,0.4-2.2-1.6-2.2-3.1c0-1.4-0.4-3.1-1.7-3.4c-4.6-1-3.5-4.3-3.3-7.3c0.1-2.6,0.1-4.9-2.8-6.3c-1.1-0.5-2.1-1.9-1.4-3.3
		c0.7-1.5,2-0.5,3.1-0.3c9.4,1.6,18.8-0.6,28.1,0.2C577,624.3,577,640.7,577,657z"/>
	<path class="st1" d="M577,331c-2.2-1.4-4-3-7-3.2c-3.6-0.2-5-3.8-5.5-6.8c-0.4-2.4,2.5-1.9,4.2-2c1.7-0.1,3-0.7,3.1-2.5
		c0.1-1.6,0.6-3.4-1.2-4.5c-2.1-1.4-3.6-0.9-4.9,1.3c-1,1.7-2.5,2.4-4,0.8c-1.5-1.7-0.5-3.1,1.2-4c1.9-1,2.9-2.6,3.3-4.7
		c0.3-1.7-0.3-3-1.6-3.8c-1.4-0.9-2.9-0.7-3.8,0.9c-1.3,2.2-3.1,2.7-4.8,0.9c-2.3-2.4-4.2-3-6.4,1c2.4-7.9,1.8-10.5-3.6-14.5
		c-1.7-1.3-3.7-2.9-5,0.6c-0.5,1.5-0.6,3.5-2.9,3.4c-0.8,0-1.1-0.8-0.9-1.5c0.7-2,1-4.3,3.4-5.1c1.1-0.3,2.3-0.1,3.5-0.1
		c11,0,21.9,0,32.9,0C577,301.7,577,316.3,577,331z"/>
	<path class="st2" d="M577,439c-9.9-0.5-19.9,1-29.8-0.9c-2.3-0.4-4.5,0.2-3.8,3.5c0.2,0.8,0.7,1.7-0.4,2.1
		c-1.3,0.5-1.4-0.8-2.1-1.5c-2.7-2.8-3.1-5,1-6.6c0.5-0.2,1.2-0.5,1.2-0.8c0.8-7.5,7.8-6,12.1-8.3c-0.3-1.6-1.7-1.2-2.8-1.6
		c-1.9-0.6-1.6-2-0.6-3.1c1-1,2.2-3.8,3.7-1.8c2.9,3.8,6.6,2.1,9.5,1.7c4-0.5,7.9-0.6,11.9-0.7C577,427,577,433,577,439z"/>
	<path class="st1" d="M577,485c-1.1,0.2-2.3,0.5-3.4,0.6c-2.1,0.3-4.5,2.8-6.2-0.2c-1.4-2.6-4.2-4.6-1.6-8.8c1.9-3,1.8-7.9-0.9-10.9
		c-2.1-2.3-1.7-3.4,0-5.3c0.6-0.7,0.9-1.7,1.1-2.7c0.2-1.3,0-2.7-1.4-3.4c-1.5-0.7-2.6,0-3.3,1.2c-1.1,1.8-2.3,3.4-3.9,0.6
		c-1.8-3.1-2.7-2.8-2.9,0.6c-0.1,1-0.4,1.7-1.3,1.6c-1-0.1-0.9-1.2-1.1-2c-0.7-2.4-1-4.9-3.7-6.1c-0.9-0.4-1.4-1.5-0.9-2.5
		c0.5-1.1,1.8-1.2,2.6-0.8c8.8,3.7,18,1.1,27,1.9C577,461,577,473,577,485z"/>
	<path class="st5" d="M47,667c1.4-6,5.4-10.8,8.3-16.1c3.6-6.4,6.4-13.4,11.5-18.9c2.1,6.5,0.8,14,5.6,19.8c0.3,0.3,0.3,1,0.2,1.4
		C70.3,659,74,662.9,77,667C67,667,57,667,47,667z"/>
	<path class="st6" d="M439,667c0.5-0.9,0.9-1.8,1.4-2.6c0.9-1.6,0.3-3-0.9-3.9c-1.3-1-2.9-0.8-4,0.5c-2.6,2.8-6,4-9.5,5
		c-3,0.9-3.4-0.6-3-3c0.7-5.1,6.3-9.7,11.5-9.5c4.6,0.2,9.3,0.4,13.9,0.4c8.1,0.1,12.9,4.7,13.7,13.1C454.3,667,446.7,667,439,667z"
		/>
	<path class="st2" d="M567,575c1.7,1.7,3.3,1.1,4.8-0.3c1.6-1.6,1.5-3.5,0.7-5.5c-2-5-1-6.7,4.5-7.1c0,9.3,0,18.7,0,28
		c-7.4,2.4-14.8,2.6-22.2-0.1c-0.5-3,1.1-6.1-1-9c-0.6-0.8,0.4-1.9,1.2-2.5c2.3-1.6,3.7-4.3,6-5.9C563.8,571.5,565.4,573.2,567,575z
		"/>
	<path class="st7" d="M291,667c8.5-2,16.9-3.6,25.7-1.5c6,1.4,12.3,1.1,19-1.7c-2.3-1.3-3.8-0.7-5.3-0.3c-6.5,1.4-12.9,0.3-19.3-0.7
		c-0.8-0.1-2.1-0.3-2.3-1.5c-0.1-1.3,1.2-1.5,2-1.8c7.9-3,16.2-3.3,24.4-4.2c4.9-0.6,9.9-1.6,15.2-0.8c-0.8,3-3.4,3.9-5.5,5.2
		c-2.8,1.7-5.1,3.8-5,7.4C323.7,667,307.3,667,291,667z"/>
	<path class="st8" d="M39,211c-0.7-0.3-1.4-0.6-2-1c0-2.3,0-4.7,0-7c0.7-0.7,1.3-1.3,2-2c1.8,2,3.8,3.4,6.8,3.4
		c25.6-0.1,51.2,0.2,76.7-0.2c0.8,0,1.7-0.2,2.5-0.3c2.9,0.2,2.8-3.3,5-4c0.9,3.7,3.4,4.6,7,4.5c23.2-0.1,46.4-0.1,69.7,0
		c3.6,0,5.6-1,6.3-4.5c2.2,0.6,2.1,4.2,5,3.9c0.4,2.4,2.2,2,3.9,2c24.5,0,49.1,0,73.6,0.1c1.9,0,3.7-1.8,5.6,0
		c-7.3,1.4-14.7,0.6-22,1.1c-17.7,1.6-35.4,1.4-53,1.3c-2.8,0-5.1,0.2-4.1,4c-0.2,1-1,2.4-1.8,1.4c-1.9-2.7-4.9-2.6-7.4-3.7
		c-1.9-1.8-4.3-1.6-6.6-1.6c-23.1,0-46.1,0-69.2-0.1c-3.2,0-5.8,0.8-7.8,3.4c-4.4-6.2-4.7,1.3-7,2.1c-0.9-1-0.8-2,0-3
		c0.3-0.3,0.7-0.7,1-1c0.2-1.6-1.2-2.1-2-3c-1,0-2,0-3,0c-1.8,1.5-4,1.6-6.1,1.6c-18.7,0-37.5,0-56.2,0c-2.4,0-4.6-0.3-6.7-1.6
		c-1.3,0-2.7,0-4,0c-1.3,1-2.7,1-4,0C38.3,207.3,39.2,209.4,39,211z"/>
	<path class="st9" d="M572,198c1.7,1.6,2.7,4,5,5c0,2,0,4,0,6c-1.6-0.2-1.9,1.4-3,1.9c-2.5-2.4-5.7-2.4-8.9-2.4
		c-22.4,0-44.7,0.1-67.1-0.1c-3.1,0.1-6.9-1.6-7.8,3.5c-2.8-0.5-5-0.4-6.6,2.8c-1.4,2.8-2.3,2.7-4.2,0.8c2.6-7.1,2.6-7.1-5.3-7.1
		c-22.4,0-44.9,0-67.3,0c-2.8,0-6.1-0.5-5.2,4.2c-2.1,1.8-2.1,1.8-5-1.6c-2.1-0.4-2.2,5.2-5.4,1.9c0.5-3.6-1.3-4.5-4.7-4.5
		c-8.8,0.1-17.6,0.1-26.4,0c-2.3,0-4.7,0.3-6.8-0.9c-0.5-0.4-0.6-0.9-0.3-1.5c12,0,24.1-0.2,36.1,0c4,0.1,5.5-1.1,4.8-5
		c1.7,3.8,3.4,2.4,5.1,0c-1.2,3.6-0.5,5.1,3.9,5c25.4-0.2,50.8-0.2,76.1,0c3.9,0,5.6-1.1,4.8-5c3.1,5.8,4.1-0.5,6.1-1
		c-0.7,1.8-1.4,3.6-2.1,5.5c1.5,0.9,3.2,0.4,4.8,0.4c25,0,50,0,74.9,0c6.9,0,6.9,0,4.5-6.5C571.9,199.1,572,198.5,572,198z"/>
	<path class="st10" d="M54.7,555.8c-4.7-5.2-7.4-11.5-10.7-17.5c-1.9-3.4-3.9-6.8-7-9.3c0-3.3,0-6.7,0-10c1-0.3,2-0.7,3-1
		c-0.2,4.7,2.1,6.5,6.6,5.8c1.1-0.2,2.3,0.2,3.1,1.2C51.4,535.3,53.1,545.5,54.7,555.8z"/>
	<path class="st2" d="M555,588c0.5,2.7,2.6,2,4.3,2c5.9,0.1,11.8,0,17.7,0c0,2.7,0,5.3,0,8c-0.6,0.5-1.3,1.1-2.2,1.1
		c-9.2,0.3-18.5,1.4-27.6-0.7c-0.5-0.3-1-0.6-1.4-1c-2.4-4.6,1.6-6.3,3.9-8.8C551.4,587.7,553.1,586.7,555,588z"/>
	<path class="st11" d="M469,667c-1.8-5.5-2.9-11.3-7.7-15.3c-1.8-1.5-0.2-2.6,0.4-3.8c0.9-1.7,2.2-1.2,3.4-0.6
		c8.3,4.1,13.8,10.3,14.9,19.7C476.3,667,472.7,667,469,667z"/>
	<path class="st2" d="M546,597c10.3,2.1,20.7,0.5,31,1c0,2,0,4,0,6c-10.4,1.1-20.8,0.2-31.2,0.5c-1.9,0-2.2-1-2-2.6
		C544.2,600.1,544.5,598.3,546,597z"/>
	<path class="st12" d="M37,444c13.4,0.4,26.8-0.7,40.2,0.6c2,0.2,2.6-0.9,2.8-2.6c0.8,0.1,1.2,2.2,2.5,0.2c1.9-2.9,3.7-5.6,3.6-9.5
		c-0.1-4.6-1.2-9.3,0.8-13.7c-0.7,13,0.4,26,2,38.9c-2.8,0.3-3.5-1.9-4.5-3.7c-1.3-2.3-2.3-4.7-4.5-6.4c-0.5-2.8-2.8-1.8-4.4-1.8
		C62.7,446,49.8,446,37,446C37,445.3,37,444.7,37,444z"/>
	<path class="st13" d="M380,667c-0.1-1.7-0.2-3.3-0.3-5c-0.8-8.5-0.8-8.5,8-9.1c3-0.2,6.1-0.6,10.1-1.1c-4.6,5.1-5.5,11.5-10.8,15.1
		C384.7,667,382.3,667,380,667z"/>
	<path class="st14" d="M404,667c-0.8-1.8-2.9-0.2-3.9-1.7c1.2-3.3,2.9-6.9,6.8-6.8c5.2,0.1,9,3,10.2,8.6
		C412.7,667,408.3,667,404,667z"/>
	<path class="st2" d="M577,394c-3.4-0.3-4.6,2.1-5.8,4.5c-0.8,1.6-1.8,3.2-3.8,2c-2-1.1,0-2.5,0.2-3.8c0.3-2.1,5.3-5.7-1.9-5.5
		c-1.3,0-0.8-2-0.3-2.9c1.1-1.6,2.4-3.1,3.6-4.6c1.4,0.9,0.7,2.2,0.9,3.2c0.3,2.5,2.2,2.1,3.8,2.1c2,0,2-1.1,1.5-2.7
		c-0.5-1.5-0.4-3,1.7-3.3C577,386.7,577,390.3,577,394z"/>
	<path class="st2" d="M546,597c0.2,2.3-0.1,4.5-1.6,7c11.3,0,21.9,0,32.6,0c0,0.3,0,0.7,0,1c-12.6,0-25.2,0-37.9-0.1
		c-1.8,0-3.7,0.6-5.2-0.9c0.4-1.4,3-0.2,2.8-2.3c0.2-1.3,1.1-2.1,1.9-3c2-1-0.1-2.4,0.3-3.6c1.3-1.5,3-1.3,4.7-0.8
		C544.8,594.8,545.1,596.2,546,597z"/>
	<path class="st2" d="M577,545c-2.5-1.1-5.2-4.1-6.9,1.5c-2-5.6,1.7-10.4,6.9-10.5C577,539,577,542,577,545z"/>
	<path class="st2" d="M577,553c-0.5,0.4-1.1,0.7-1.6,1.1c-1.1,0.9-2.2,2.6-3.8,1.3c-1.1-0.9-0.8-2.5-0.3-3.7
		c0.7-1.7,2.1-1.8,3.7-1.2c0.6,0.3,1.3,0.3,1.9,0.5C577,551.7,577,552.3,577,553z"/>
	<path class="st2" d="M577,379c-1.3-0.5-3.4,2.3-3.9-0.8c-0.4-2.7,1.6-3.3,3.9-3.2C577,376.3,577,377.7,577,379z"/>
	<path class="st1" d="M577,356c-2-0.1-3-1.2-2.9-3.2c0.1-1.8,1.2-2.6,2.9-2.8C577,352,577,354,577,356z"/>
	<path class="st15" d="M324.6,350.8c5.9,1.5,11.4,2.8,16.9,4.1c4.4,1,8.7,0.9,11.9-2.9c3.2-3.9,3.3-8.2,0.1-13.6
		c7.9,3.1,14.3,6.5,19.9,11.3c4,3.4,8.1,5.4,13.2,2.9c4.7-2.3,5.7-6.5,5.6-11.3c-0.1-4.6,0-9.3,0-13.7c8.6,2.6,19.9,16.3,22.8,28
		c1,4.1,1.3,8.2,0.9,12.4c-0.3,3,0.4,5.9,2.7,7.7c10.1,7.7,13.1,18.9,15.1,30.5c1.7,10.3,3.3,20.7,4.3,31.1c0.3,3.5-1,7.2-2,10.7
		c-7.8,25.7-17.8,50.5-33.9,72.3c-16.9,22.7-40.6,35.3-66.5,44.8c-17.3,6.4-34.6,7.3-52.3,1.7c-2.8-0.9-4.3-2.1-4.8-5.3
		c-1.7-12-3.8-24-5.6-36c-1.5-10.6-6.5-15.3-17.2-15.3c-15.7-0.1-31.3-0.1-47,0c-2.8,0-4.5-0.8-5.9-3.3
		c-13.5-24.4-25.1-49.8-28.2-77.7c-1.3-12.1,1.1-24.9,6-36.6c1.2-2.9,3.9-4.9,6.4-6.9c3.3-2.5,6.4-5.3,9.2-8.5
		c3-3.4,4.2-7.1,3.2-11.9c-2.6-12.4,0.9-23,10.7-31.4c0.9-0.8,1.7-1.6,2.7-2.3c4.1-2.9,7.9-6.9,12.4-8.1c5.2-1.4,8.1,4.7,11.9,7.5
		c22.2,16,46.1,27.6,73.3,32.3C319.7,365.1,325.1,360.8,324.6,350.8z"/>
	<path class="st6" d="M64,519c2-0.1,4-0.2,6-0.2c61.6,0,123.2,0,184.8,0c7.7,0,8.4,0.4,9.6,8.2c5.9,36.1,11.7,72.2,17.5,108.3
		c0.2,1.1,0.2,2.3,0.2,3.5c1,2.8-0.2,4.1-2.8,4.5c-0.3,0.1-0.7,0.1-1,0.1c-21.6,0-43.3,0.6-64.9-0.3c-3.3-0.1-6.6-0.5-10-0.5
		c-35.8,0-71.6,0-107.4,0c-2,0-4,0-6,0c-7.3-0.3-10.2-2.8-11.6-9.9c-3-15.7-5.4-31.5-8.2-47.3c-3.3-18.5-6.3-37.1-9.3-55.6
		C60.3,525.8,59.7,521.6,64,519z"/>
	<path class="st4" d="M133.2,372.9c0-18.8,2.3-37,8.1-54.7c15.6-47.8,49.1-76.5,96.5-90.2c25-7.2,50.7-8.5,76.6-8.3
		c26.8,0.2,53.1,3.8,78.2,13.2c49.1,18.3,77.7,53.8,86.5,105.4c1.7,9.9,2.3,19.8,1.9,29.8c-0.1,1.4,1.7,4.9-1.7,4.3
		c-2.8-0.5-7.7,1.5-7.7-4.9c0-9.3-1.1-18.6-3.2-27.7c-10.3-45.5-38.6-74.9-81.6-90.8c-26.3-9.7-53.8-12.5-81.7-12.3
		c-26.7,0.2-53,2.7-78.3,12C183,265,154.9,295,145.4,341.3c-1.6,8-2.7,16.1-2.3,24.3c0.2,4.5-0.6,7.1-5.7,6.7
		C136.1,372.2,134.8,372.6,133.2,372.9z"/>
	<path class="st1" d="M488.8,520.8c-0.7,1-1.4,2.1-2.2,3.1c2,1.7,4.3,1,6.3,1c25.6,0.1,51.2,0,76.8,0c5.9,0,5.9,0.4,3.4,5.8
		c-3.1,6.6-8.1,12.2-10.3,19.3c-0.1,2.9-2.4,4.7-3.3,7.2c-1.3,2.3-2.9,4.5-4,6.9c-0.6,1.2-1.3,2.4-2.1,3.5c-3,5.1-5.5,10.5-8.8,15.4
		c-0.4,0.8-0.9,1.6-1.3,2.5c-2.7,3.3-2.9,8.6-7.5,10.5L536,596c-0.9-1.2-2-1.3-3.4-1.3c-3.5-0.1-4.9-2-4-5.6c-1.6,0.7-2,2.6-3.5,3.2
		c-2.5,0-3.1-2.1-4.1-3.8c-4-6.7-7.1-13.8-11.6-20.1c-6.6-13.6-15-26.2-22.6-40.5c-8.2,13-14.7,26-21.9,38.6
		c-4.5,7.5-9.1,15-12.7,23c-5.7,0.1-11.4,0.2-16.6,3c-2-0.4-3-2-4-3.5c-10.4-16.6-19.5-33.9-29.2-50.9c-0.2-0.4-0.2-1-0.3-1.5
		c3.3-3.9,6.5-7.8,9.8-11.7c2.4-1.6,5-1.4,7.7-1.4c12.9,0,25.8-0.3,38.6,0.8c6.6,1,13.3,0.4,19.9,0c2.1-0.1,4.5,0.8,6.1-1.6
		C485.6,522,487.2,521.4,488.8,520.8z"/>
	<path class="st4" d="M466.9,511.9c-2.9,0.4-4.1-0.3-3.3-4.6c7.7-38.6,15.1-77.2,22.5-115.8c1.1-5.9,3.7-7,9-4
		c8.9,5.1,13.9,13,16.8,22.6c0.5,1.8,0.2,3.4-0.5,5.3c-9.8,26-15,53-15.7,80.8c-0.1,2.2-0.6,3.7-2.1,5.3
		C486.6,509,477.6,511.7,466.9,511.9z"/>
	<path class="st4" d="M140.7,510.2c-4.2,0.4-9-0.4-13.4-3.2c-5.4-3.5-8.6-7.1-8.9-14.5c-1.2-26.1-5.9-51.7-15.4-76.3
		c-1.1-2.8-1.2-5.3-0.2-8.2c3.4-9,8.4-16.6,17.3-21c4.5-2.2,6.9-1.1,7.8,3.7c7.3,37.9,14.7,75.8,22,113.8c1.1,5.7,1.1,5.7-4.9,5.7
		C143.9,510.2,142.7,510.2,140.7,510.2z"/>
	<path class="st2" d="M480.1,217.1c1.6-1,2.7-2.4,3.4-4.1c1.6-4,3.8-4.6,6.5-1c3.8,3,5.7,7.4,7.8,11.4c10.3,19.7,22,38.5,32.8,58
		c1.3,4.2-0.8,6.1-4.7,6.1c-15.4,0.2-30.9,0.2-46.3,0c-1.5,0-2.9-0.6-4.2-1.4c-5.5-9.7-12.1-18.5-19.3-27c0.1-3.4,2.3-5.8,3.9-8.5
		c5.7-9.7,11.1-19.7,16.7-29.4C477.5,219.6,478.3,217.9,480.1,217.1z"/>
	<path class="st1" d="M129,211.9c-0.7-4,0.9-5.1,4.9-5c25.1,0.2,50.1,0.1,75.2,0.1c2.9,0,5.6-0.2,4.9,4c-1.1,5.6-4.3,10-7.8,14.3
		c-11.5,6.5-23.1,12.9-33.2,21.6c-5.5,4.8-10.4,10.2-15.8,15.1c-4.1-4.6-6.5-10.3-9.4-15.6c-4.4-7.8-8.5-15.7-13.3-23.2
		c-1.6-2.5-3.2-5-3.5-8.1C131.1,213.5,129.6,213,129,211.9z"/>
	<path class="st1" d="M480.1,217.1c-7.8,14.1-15.3,28.4-24,42c-14.6-15.9-32.6-27-51.9-36.2c-1.7-2.7-3.4-5.5-3.2-8.9
		c-2.8-7-2.8-7,4.9-7c24.6,0,49.3,0,73.9,0c5.4,0,5.3,0,2.9,4.8C481.8,213.5,479.9,214.8,480.1,217.1z"/>
	<path class="st16" d="M79.9,447.9c2.2-1.1,2.7,0.6,3.6,2.1c1.6,2.8,2.3,6.2,5.4,8c1.7,6.8,3.2,13.6,5.1,20.2
		c1.6,5.6,3.6,11.1,6.2,16.3c2.6,5.2,5.8,10.1,9.5,14.9c-1.7,1.4-3.5,0.8-5.2,0.8c-12.8,0.1-25.6-0.1-38.4,0.1
		C56,510.3,51,514.9,49.7,525c-2.3,0-4.6-0.1-6.9,0c-4.1,0.2-5.8-1-3.4-5.1c0.3-0.5,0.4-1.2,0.5-1.9c3.8-3.7,5.1-8.8,7.7-13.2
		c10.3-17.7,20.4-35.6,30.6-53.4C78.9,450.3,79.4,449.1,79.9,447.9z"/>
	<path class="st2" d="M401.9,536.5c4.1,4.2,6.2,9.6,9.1,14.5c8,13.7,15.1,27.8,24.1,40.9c-1.3,5.2-4,9.7-7.4,13.7
		c-5.6,0.1-11.3,1.5-16.9-0.6c-4.7-9.9-9.9-19.5-17-27.9c-5-5.9-11.1-10.5-18-13.9c-2.9-4.1,2-5,3-7.5
		C387,549.8,394.6,543.4,401.9,536.5z"/>
	<path class="st1" d="M120.7,353.8c-4.9-4.2-6.5-10.6-9.7-15.8c-8.9-14.4-16.8-29.4-25-44.3c-1.3-2.4-3.3-4.7-2.9-7.8
		c6.5-2.1,13.1-1.5,19.8-1.5c10.3,0,20.6-0.1,30.9,0c2.4,0,5.1-0.4,7,1.7C129.4,307.3,123,330,120.7,353.8z"/>
	<path class="st17" d="M64,519c-4,5.7-1.5,11.7-0.6,17.4c4,24.8,8.4,49.5,12.6,74.3c1.4,8,2.6,16,4.1,23.9c1,4.9,4.6,6.4,9.3,6.3
		c26.3-0.1,52.6,0,79,0c13.7,0,27.4-0.7,41,0.2c22.6,1.5,45.3,0.3,67.9,0.8c2.4,0.1,4.8,0.3,4.8-3.2c1.8,6.3-0.2,9.2-6.7,9.2
		c-63.5,0-126.9,0-190.4,0.1c-5,0-7.3-2.2-8-6.8c-5.3-33.7-10.7-67.4-16.1-101.1c-0.8-4.7-1.7-9.5-2.4-14.2
		C57.9,521.8,59.5,519.2,64,519z"/>
	<path class="st2" d="M140.7,286.1c-19.2-0.1-38.5-0.1-57.7-0.2c1.9-1.2,4.3-1.7,4.2-4.8c0-1.3,1.3-1.8,2.3-2.3
		c3.3-1.8,6.8-3.3,3.6-8.1c-0.6-0.8-0.5-2.5,0.6-3.2c1.2-0.8,2.8-0.6,3.5,0.7c1.7,3.3,3.4,2.8,5.7,0.6c0.6-0.6,1.9-0.8,2.8-0.6
		c7.6,1.8,15.2,0.6,22.8,0.9c1.7,0.1,3.4,0,4.1,2c0.6,1.8,1.4,4.1,3.7,2.3c1.5-1.2,2.7-3.5,1.3-5.7c-0.6-0.9-2.2-1.3-0.9-2.7
		c1.2-1.2,2-0.1,3,0.5c3.3,2.3,4.3,0.3,4-2.6c-0.4-3.2-1-6.5-2.9-9.3c-3.4-5-5.4-10.1-2.4-16c0.4-0.7,0.5-1.7-0.6-2
		c-1-0.2-1.6,0.6-1.8,1.4c-1.2,4-0.9,8.1-0.1,12c0.6,2.6,0.7,4.5-1,6.3c-1.1,1.2-2.3,0.6-3.6-0.1c-2.4-1.4-3-3.3-2.1-5.9
		c0.4-1.1,0.5-2.3,0.6-3.4c0.2-3.2,0.8-6-4.3-6.2c-4.8-0.2-8.5-4.8-8.5-11c0-2.2,1.2-4.3,3.6-4.8c2.6-0.6,1.1,1.6,1.5,2.6
		c0.4,0.9,0.9,1.3,1.9,1c1.2-0.5,2.1-1.4,1.4-2.7c-0.8-1.5-1.5-2.8-1.9-4.5c-1-4.9,0.3-6.3,5.2-5.2c0.6,0.1,1.3,0.1,2,0.2
		c4.6,7.6,9.5,15,13.7,22.8c3.9,7.3,7.8,14.6,11.9,21.8c0.4,0.7,0.4,1.6,0.6,2.4C151.5,269.8,145.5,277.6,140.7,286.1z"/>
	<path class="st1" d="M475.3,286.1c16.3,0,32.6,0,49,0c6.4,0,6.4,0,4.7-6c0.2-0.1,0.4-0.2,0.6-0.3c1.3,0,2.6,0,4,0
		c0.2,0.1,0.4,0.2,0.6,0.3c-2,4-3.9,8-5.9,12c0.2,2.1-0.8,3.6-2.3,4.9c-2.8,2.9-4.7,6.3-6,10.1c0,1.7-0.6,3-2,4
		c-2.9,4.2-5.8,8.4-7.9,13.1c0,0.9-0.3,1.5-1.1,2c-1.7,3-3.4,6-5,9c-0.6,4.7-3.6,8.1-6,11.9c-1.3,1.4-2.6,2.8-3.9,4.2
		c-1.9-14.5-4.1-28.8-9-42.7C482.3,300.7,478.7,293.4,475.3,286.1z"/>
	<path class="st18" d="M182.9,659.6c-31.8,0-63.6,0-95.4,0c-2.4,0-6.4,1.1-6.5-2.5c-0.1-4.3,4.1-2.9,6.6-2.9
		c63.6-0.1,127.2-0.1,190.8-0.1c0.7,0,1.3,0,2,0c2.1,0.1,4.9-0.3,4.9,2.8c0,3.1-2.9,2.7-4.9,2.7
		C247.8,659.7,215.3,659.6,182.9,659.6z"/>
	<path class="st19" d="M349.7,571.2c-10.2,13.8-23.2,23.7-40.1,27.6c-9.7,2.2-18.2-1.2-25.1-7.7c-3.6-3.4-2-9.1-3.6-14.2
		c12,2.9,23.4,4.8,35.3,3.4C327.8,578.8,338.5,574.7,349.7,571.2z"/>
	<path class="st20" d="M101,418.9c9.1,24.5,14,49.7,14.6,75.7C102.7,470.8,98.5,445.5,101,418.9z"/>
	<path class="st21" d="M513.3,418.8c2,26.6-1.9,52-14.7,77.1C496.6,481.8,506,432,513.3,418.8z"/>
	<path class="st22" d="M458,524.3c-2.5,1.4-5.2,0.7-7.8,0.7c-12.8,0-25.7-0.1-38.5-0.1c5.4-8.7,11-17.1,15.9-26.3
		c0.2,6.1,2,11.5,5.2,16.3c3.3,5.1,7.9,8.1,14.2,7.2C451,521.5,454.3,523.7,458,524.3z"/>
	<path class="st23" d="M410.8,605c5.6-0.6,11.3-0.8,16.9-0.1c1.2,0.7,1.1,1.9,0.9,3.1c-0.6,3.8,1.3,4.7,4.5,4.1
		c0.8,0,1.5,0.3,2.1,0.8c1.1,5-1.2,8.5-5,11.2c-1,0.7-2.4,1-3.2,2.1c-2.8,2-5.8,3.7-9,7.2C418.8,622.5,414.2,614,410.8,605z"/>
	<path class="st24" d="M442,647.2c-2.5,0-5,0.1-7.5,0c-3.3-0.1-6.7-0.8-7.3-4.6c-0.6-4,1.3-7.2,5.2-8.7c2.3-0.9,4.8-1.2,7.3-1.7
		c1.9-0.4,3.3-0.6,3.8,2.2c0.5,2.9,2.8,4,5,1.4c1.6-1.8,2.5-1,3.5,0.2c1.2,1.4,2.5,2.8,3.3,4.4c2,4.1,0.8,6.5-3.7,6.9
		C448.3,647.5,445.1,647.3,442,647.2C442,647.2,442,647.2,442,647.2z"/>
	<path class="st25" d="M435.2,613.2c-0.7-0.3-1.4-0.5-2.2-0.8c-0.9-6.3,2.9-14.7,7.9-17.5c4-2.2,8-2,10.2,1.5
		c4.6,7,5.7,14.6,2.8,22.6c-2,0.3-3-0.7-3.6-2.4c-0.3-1.6-0.1-4.1-1.8-4.2c-2.1-0.2-2.3,2.4-2.9,4.1c-4.1,1.3-3.3-2.7-4.8-4.3
		c-2.2-1.7-3.2-0.2-4,1.6C435.9,615,435.7,613.6,435.2,613.2z"/>
	<path class="st26" d="M221,214c0-0.2,0-0.4,0-0.5c1-2.5-4-4.3-1.3-6.2c1.7-1.2,4.8-0.3,7.3-0.3c17.3,0,34.6,0.1,51.9,0.2
		c-11.6,2-23.4,2.5-34.8,5.8c-7.3,2.1-14.7,3.9-22.1,5.9C221.5,217.3,220.5,215.8,221,214z"/>
	<path class="st27" d="M353,207c11.7,0,23.5,0,35.2,0c5.8,0,5.8,0,3.9,5.5c-0.2,0.4,0,1,0,1.5c0.5,1.9-0.8,2.8-2,3.8
		c-16.4-4.7-33-8.2-49.9-10.1C344.3,205.1,348.7,206.8,353,207z"/>
	<path class="st28" d="M394,636.9c-1.1-1.2-2.2-2.4-3.4-3.6c4.2-1.8,4-4.7,2.1-8.1c-1.6-2.8-3.3-5.7-5.8-9.8
		c6.7,3.5,11.5,7.4,16.5,10.9c1.3,1,0.5,1.5-0.4,2.1c-3,2.2-4.6,5.6-6.8,8.4C395.5,637.6,394.8,637.6,394,636.9z"/>
	<path class="st29" d="M221,214c0.9,1.5,2.7,2.7,1.2,4.8c-5.3,2.2-10.6,4.3-15.9,6.5c1.9-5.1,4.8-9.8,7.8-14.3
		c1.5-1.8,2.9-4,4.6-0.1C219.1,212.1,220.2,213,221,214z"/>
	<path class="st30" d="M390,217.9c0-1.6,1.4-2.6,2-3.8c0.4-0.5,0.9-1,1.2-1.5c2-3.6,3.9-5.8,5.9,0c0.2,0.6,1.2,1,1.8,1.5
		c1.3,2.9,3.9,5.3,3.2,8.9C399.2,221.9,394.7,219.7,390,217.9z"/>
	<path class="st31" d="M297.3,650.3c6.4-2.3,12.3-4.4,18.1-6.5c1.6-0.6,3-0.5,3.5,1.4c0.4,1.5-0.1,2.6-1.7,3.1
		C310.9,650.3,304.8,654,297.3,650.3z"/>
	<path class="st32" d="M420.2,645.1c4,4.7,3.8,5.8-0.4,9.8c-2.5,2.4-4.5-0.1-4.8-1.1C413.3,649.1,418.2,648,420.2,645.1z"/>
	<path class="st33" d="M192.7,509.8c-1.3,0.2-1.8,0.3-2.3,0.4c-6.1,0.2-6.1,0.2-4.9-5.7c0.4-1.8,0.3-3.6,0.6-6.9
		C188.6,502.2,190.5,505.7,192.7,509.8z"/>
	<path class="st34" d="M286.2,649.2c1.6-10.1,9-4.4,13.6-6C295.8,646.1,291,646.9,286.2,649.2z"/>
	<path class="st8" d="M353,207c-4.3,0.5-8.7-0.8-12.9,0.8c-9.1-0.6-18.1-1.1-27.2-1.7c13.4,0,26.7-0.1,40.1-0.1
		C353,206.3,353,206.7,353,207z"/>
	<path class="st35" d="M435.2,613.2c0.6,0.2,1.1,0.3,1.7,0.5c0,6.7-2.5,11.5-9.8,12.6C430.5,622.4,435.1,619.2,435.2,613.2z"/>
	<path class="st36" d="M440.9,612c2.2,0.7,1.6,4.6,4.8,4.3c-1.2,2,0.6,6.2-2.6,6c-2.6-0.2-1.5-4.1-2-6.3
		C440.8,614.7,440.9,613.4,440.9,612z"/>
	<path class="st1" d="M527.1,439.9c1.4-1.2,0.7-2.8,0.9-4.2c0.1-0.7-0.3-1.8,0.9-1.9c0.6,0,1.3,0.3,1.8,0.7c0.9,0.7,0.5,1.3-0.3,1.9
		c-1.8,1.3-1.5,3.1-0.8,4.9c0.9,2.4,0.2,3.9-2.6,3.7C527,443.3,527.1,441.6,527.1,439.9z"/>
	<path class="st37" d="M378.9,555.8c0.1,2.9-4.1,4.1-3,7.5c-1.8-0.5-3.7-1-6-1.7C372.8,558.8,375.9,557.3,378.9,555.8z"/>
	<path class="st38" d="M394,636.9c0.8,0,1.5,0,2.3,0.1c-1.1,2.4-2.2,4.8-3.3,7.3c-0.5,1.1-1.5,1.6-2.4,1c-1.5-0.9-0.2-1.6,0.4-2.3
		C392.5,641.2,394.1,639.5,394,636.9z"/>
	<path class="st39" d="M294.4,655.6c-0.1,1.3-1.2,1.3-2.1,1.6c-2.1,0.7-1.9-1.1-2.2-2.2c-0.2-0.9-0.3-2.5,0.8-2.2
		C292.2,653.1,293.3,654.6,294.4,655.6z"/>
	<path class="st2" d="M484,522.6c-0.8,2.8-1.4,2.9-6.1,1.6C479.9,523.7,482,523.2,484,522.6z"/>
	<path class="st2" d="M213,200c0.3,0.9,0.5,1.9,1,2.8c1.3,2.4,0.4,3.2-2.1,3.2c-26.5,0-53.1,0-79.6,0c-5.7,0-2.1-3.8-2.2-6
		c7.3-13,14.6-26,21.9-39c5.6-10.1,11.3-20.2,16.8-30.3c2.1-3.8,3.7-2.4,5.2,0.2c5.8,10.2,11.6,20.4,17.3,30.6
		c4.9,8.6,9.7,17.2,14.6,25.8C208.2,191.5,210.6,195.8,213,200z"/>
	<path class="st2" d="M125,204c-0.4,2.4-2.3,2-3.9,2c-26.1,0-52.1-0.1-78.2,0.1c-4.2,0-4.1-2.2-3.9-5c4.3-7.2,8.6-14.4,12.8-21.7
		c6.7-11.6,13.3-23.2,19.9-34.8c2.5-4.5,5-9,7.4-13.5c0.6-1.2,1.2-2.5,2.7-2.6c1.7-0.1,2,1.5,2.6,2.6c9.9,17.6,20,35.1,29.6,52.8
		c1.9,3.4,3.4,7.1,5.9,10.2C121.5,197.4,123.4,200.6,125,204L125,204z"/>
	<path class="st2" d="M239.9,166c1.3-0.2,2-2.4,3.8-0.8c1.4,1.3,0.9,2.5,0.2,3.9c-0.4,0.8-1.1,2.2-0.7,2.7c2.7,4.3-0.5,6.1-3.2,8.2
		c1.4-4.2-0.8-8.1-1.1-12.1C238.9,167.1,239.2,166.4,239.9,166z"/>
	<path class="st8" d="M125,204c-2.5-2.9-4.5-6.1-5-10C122.5,196.9,124.5,200.1,125,204z"/>
	<path class="st2" d="M260.9,130c1.1,0.1,2.4,0.2,2.5,1.7c0,0.4-0.8,1.1-1.3,1.2c-1.4,0.3-2-0.6-2.1-1.9
		C260.3,130.6,260.6,130.3,260.9,130z"/>
	<path class="st2" d="M223,195c4.2,3,8.3,2.5,12.2-0.6c0.1-0.1,0.2-0.3,0.4-0.3c5.3-0.6,9.6-1.9,7-8.9c-0.2-0.7,0.6-2.8,2.5-2.4
		c1.9,0.4,2,1.9,2,3.5c0,1.8-2.6,4.4,0.2,5.1c2.5,0.6,2.8-2.8,3.5-4.7c1.5-4.1,1.1-7.9-1.9-11.4c-3.4-4-2.2-7.8,2.5-9.8
		c2.7-1.1,2.9-4.3,4.5-6.3c0.8-1,0.7-2.6,1.8-3.4c1.3,0.3,2.2,1.3,2.3,2.4c0.4,4,2.4,5.9,6.5,6c3,0.1,3,2.9,3.4,4.8
		c1,4.5,0.9,9.2,2.9,13.5c0.9,1.9-0.6,3.2-1.9,4.1c-2.3,1.6-2.3,3.9-1.1,5.7c1.4,1.9,3.1,3,6.3,1.8c4.3-1.7,9.2-2.6,14-1
		c0.8,0.3,1.7,0.3,1.8,1.3c0.1,1.4-1,1.5-2,1.7c-1.8,0.3-3.6,0.8-5.4,0.9c-3.5,0.3-7.2-0.8-10.1,2.6c-0.7,0.8-2.8,0.5-4.3,0.5
		c-11.3,0-22.7,0-34,0c-1.6,0-3.4,0.1-4.9,0.6C224.3,202.8,223.2,202,223,195C223,195,223,195,223,195z"/>
	<path class="st2" d="M259.5,142.5c-0.8-3.2,0.5-4.2,1.9-5.1c0.9-0.5,2-0.6,2.8,0.1c1.3,1.2-0.1,2.4-0.1,3.7c0,2.5-0.8,4.5-2.8,6
		c-1.2,0.9-2,3.2-3.9,2.3c-1.8-0.8-2-2.9-2.8-4.5c-0.2-0.5-0.2-1.3,0.1-1.8c0.6-1,1.4-0.5,2,0.1
		C260.2,146.3,259.3,143.2,259.5,142.5z"/>
	<path class="st2" d="M280.1,170c-0.3,3.4-0.1,6.7,1.3,9.8c1.7,3.6-0.3,6.1-2.4,8.5c-0.7,0.9-2.1,2-3.4,0.7
		c-1.2-1.2-0.5-2.5,0.5-3.5c0.9-1,1.9-1.9,2.8-2.9c1.6-1.8,1.4-3.6-0.3-5.3C274.4,172.9,274.4,172.9,280.1,170z"/>
	<path class="st2" d="M294,185c0.1,1,0.2,1.9,0.4,2.9c0.1,0.7,0.4,1.3-0.3,1.8c-0.8,0.5-1.7,0.3-2.2-0.4c-2.3-3.2-5.1-6.1-6.6-9.7
		c-0.5-1.2-0.2-2.4,1-2.9c1.4-0.6,1.3,1,1.9,1.5C290.4,180.2,290.7,183.9,294,185C294,185,294,185,294,185z"/>
	<path class="st2" d="M240.5,179.2c-0.9,3.6-1.5,5.8-2.1,7.9c-1.6,0.3-1.3-0.8-1.6-1.5c-1-2.1-4.3-4.1-3-6.3
		C235.2,176.8,237.6,181.4,240.5,179.2z"/>
	<path class="st2" d="M302,199c0.3,0.6,0.7,1.3,1,1.9c-0.2,1.4-0.3,2.8-2.3,2.4c-1.5-0.3-3.8-0.7-3.7-2.1
		C297.3,198.4,300,199.2,302,199z"/>
	<path class="st2" d="M274,149c0.2,2.9-1.5,3.5-3.8,2.8c-1.3-0.4-2.4-1.8-1.6-3.1C270.3,146,272.3,147.9,274,149
		C274,149,274,149,274,149z"/>
	<path class="st2" d="M277,154.9c0,0.2,0,0.3,0,0.5c-0.2,1.8,2.6,3.3,0.6,5.3c-0.5,0.5-1,0.9-1.7,0.4c-1.8-1.4-0.5-3.8-1.6-5.5
		c-0.5-0.7-0.2-1.8,0.7-2C275.7,153.7,276.4,154.5,277,154.9C277.1,155,277,154.9,277,154.9z"/>
	<path class="st2" d="M265.8,159.2c-0.4-0.3-0.8-0.4-0.9-0.7c-0.9-2.2-3-4-2.5-6.7c0-0.2,1.1-0.5,1.2-0.3
		C265.6,153.7,266.3,156.2,265.8,159.2z"/>
	<path class="st2" d="M249,150c4.2-2.1,4.3,0.2,3.7,3.7C250.6,153,249.9,151.3,249,150C249,150,249,150,249,150z"/>
	<path class="st2" d="M280,170.2c0-2.4,0.5-3.9,2.4-4.4c0.2-0.1,0.8,0.7,0.8,1C283.2,168.8,281.1,168.9,280,170.2z"/>
	<path class="st2" d="M114.1,237.3c1.6,0.4,3.3,1.1,4.1,2.6c0.9,1.7-0.8,2.4-1.8,2.9c-1.9,1-2.6,2.5-2.2,4.5c0.5,2.4,2.2,1,3.5,1.1
		c3.2,0.4,2.9,3,1.9,4.8c-1.8,3.5-8.2,3.4-10.2,0.1c-3-4.9-1-12.9,3.9-15.7C113.4,237.5,113.7,237.4,114.1,237.3z"/>
	<path class="st2" d="M98.1,260.8c0.1-0.8,1.1-2.7,3.4-2.6c2.6,0.2,3.3,2.6,3.3,4.8c0.1,2.8-2.1,2.9-4.2,2.9
		C97.9,266,97.9,264.2,98.1,260.8z"/>
	<path class="st1" d="M122.1,211c0,1,0,2,0,3c-0.6,0.7-1.3,1.4-1.9,2c-1.2,0-2.5,0-4.3,0C117.8,213.8,119,211.3,122.1,211z"/>
	<path class="st2" d="M101,252c0.3-0.3,0.6-0.7,0.9-1c1,0.1,2,0.3,2.5,1.3c0.8,1.4,1.2,3.4-0.1,4c-2,1-2.1-1.3-2.6-2.5
		C101.6,253.2,101.3,252.6,101,252z"/>
	<path class="st1" d="M551.3,468.7c-2-0.4-3.1-1.7-3.2-3.7c-0.1-1.4,0.5-2.8,2.1-2.8c2.4,0,3.1,2.2,3.6,4
		C554.3,467.9,552.5,468.2,551.3,468.7z"/>
	<path class="st1" d="M559.9,476.6c-1.6-0.4-1.9-1.6-1.9-3c0-1.1,0-2.5,1.6-2.5c1.9,0.1,2.4,1.5,2.3,3.1
		C561.9,475.5,561.4,476.5,559.9,476.6z"/>
	<path class="st1" d="M569.2,498.4c1.3,0.3,2.2,1.3,2.6,2.6c0.3,0.9-0.2,1.9-1.2,1.6c-1.3-0.3-2.3-1.4-2.5-2.8
		C568.1,499.1,568.3,498.5,569.2,498.4z"/>
	<path class="st2" d="M560.9,394c2.4,1,1.6,2.6,0.5,3.9c-1.3,1.5-1.9,0.1-2.5-0.9C559.6,396,560.3,395,560.9,394z"/>
	<path class="st1" d="M533,447c0.7-0.3,1.4-0.8,2.1-0.9c0.9-0.1,2-0.2,2.5,0.9c0.4,0.7,0.1,1.4-0.4,1.7c-1,0.6-1.7-0.1-2.5-0.8
		C534.3,447.4,533.6,447.2,533,447C533,447,533,447,533,447z"/>
	<path class="st1" d="M496,207c24.4,0,48.7,0,73.1-0.1c2.8,0,5.6-0.2,4.9,4c-6,10.5-12,21.1-18,31.6c-0.9,1.5-2,3-3,4.5
		c-1.2,1.6-2.4,3.7-4.8,2.3c-3.9-2.2-0.1-5.3-0.4-7.9c-2.1-0.8-2.7,0.7-3.3,1.7c-1.8,3.1-3.7,5.9-7.8,6.2c-1.8,0.1-1.8,1.6-1.4,3
		c0.4,1.3,0.8,2.7-0.5,3.7c-1.4,1-2.5-0.1-3.4-1c-2.1-2.2-4-1.4-6.2,0c-5.1,3.2-7,2.3-8.1-3.4c-0.2-1.2-0.3-2.3-1.1-3.3
		c-1.9-2.3-1.7-4.3,0.3-6.6c2-2.2,2.3-5.1,2.1-8c-0.1-1-0.5-2.1-1.8-2c-1.1,0.1-1.1,1.1-1.2,1.9c-0.2,2,0.1,4-0.5,5.9
		c-0.2,0.8-0.6,1.6-1.6,1.7c-1,0.2-1.5-0.5-1.9-1.2c-3.3-5.5-3-9.5,1.3-14.4c0.8-1,2.4-1.9,0.9-3.3c-1-1-2.2-0.3-3.1,0.6
		c-0.5,0.5-0.9,1-1.5,1.3c-1.6,1-3.3,2-5,0.6c-1.4-1.2-1.1-3-0.6-4.7c1.3-4.7-0.2-7-4.8-7c-2,0-3.8,0-4.6-2
		C493.2,209.2,494.9,208.2,496,207z"/>
	<path class="st1" d="M496,207c-1.3,3.5-3.2,6.9,3.6,4.5c3-1.1,4.4,3,6.6,4.6c1.7,1.2-0.5,2.5-1.3,3.6c-1,1.5-1.6,3.6-0.2,4.5
		c1.5,1,3.6,0,4.5-1.8c1.9-3.7,4.3-2.8,6.3-0.6c2.2,2.5-0.7,3.6-2.1,4.9c-3,2.7-4.9,5.7-1.6,9.3c1.3,1.5-0.6,3.4,1.5,4.6
		c1.6-2.5,0.6-5.1,0.8-7.6c0.1-1.5-0.1-3.3,1.8-3.6c1.9-0.3,3.3,1,3.7,2.7c0.9,3.8,0.4,7.5-2.2,10.6c-0.6,0.7-2.3,1.6-1.8,2
		c3.3,2.8,1.9,7.4,4,10.4c1.1,1.6,3,0.7,4.3-0.6c3.1-3,6.1-5.1,9,0.3c0.3,0.6,1.1,0.9,1.7,0.3c0.7-0.7,0.4-1.6-0.1-2.3
		c-3-4.2-1-5.3,3.1-5.1c2.1,0.1,3.4-1.1,4.4-2.8c0.8-1.4,1.7-2.8,2.6-4.3c1-1.7,2.3-2.5,4.1-1.5c1.9,1.1,1.4,2.6,0.4,4.2
		c-0.9,1.4-2.8,3-0.7,4.7c2,1.6,3.2-0.8,4.8-1.4c-2.8,5.2-5,10.6-8.9,15.1c-2.2-1.3-2-3.6-2.1-5.7c-2.1,4.3-2.1,4.3,2,6.5
		c-2.9,5.9-5.6,12-9.9,17.1c0,0-0.1-0.1-0.1-0.1c-1.6-0.6-3.3-0.6-4.9,0c0,0-0.1,0.1-0.1,0.1c-4.4-7.1-8.9-14.2-13.1-21.5
		c-8.6-15-17-30.1-25.5-45.2c-0.2-0.4-0.2-1-0.3-1.4C487.7,205.2,493.4,208,496,207z"/>
	<path class="st2" d="M533.6,348c-2.7,0-5.2-0.2-7.9-0.8c-3.6-0.7-7.8,0-4.2-5.9c1.3-2.1-0.8-3.2-2.9-3.3c-1.6-0.1-3.6,0.3-4.3-1.7
		c-0.8-2.1,0.8-2.9,2.5-3.5c0.4-0.1,1-0.8,0.9-1c-1.7-5,3.7-8.2,3.3-12.9c-0.1-1.1-0.2-2.6,1.5-2.6c1.7,0,1.4,1.5,1.4,2.6
		c-0.1,1-1.5,2.4,0.5,2.8c1.9,0.4,2.6-1.2,2.6-2.8c0.2-4.2,3.8-8.4-0.2-12.6c-0.6-0.6-0.2-1.6,0.8-1.9c0.8-0.2,1.2,0.3,1.4,1.1
		c0.8,3.6,5.9,6.7,1.2,11.2c-1.1,1-0.2,3.9,2.2,4.1c1.9,0.2,5.1,1.5,5.4-1.6c0.4-4.3,5.1-3,6.4-5.9c0.3-0.5,1.5,0.1,1.4,1.2
		c0,0.3-0.3,0.6-0.5,0.9c-6.6,8.6-1.1,16.9,1.1,25.1c1.2,4.6,1.1,5.4-3.7,6.7C539.5,348,536.6,347.9,533.6,348z"/>
	<path class="st2" d="M562.7,345.3c2,1.5,2.9,2.9,3.4,4.7c1.2,3.8,0.1,5.9-3.9,6c-19.6,0.1-39.3,0.1-58.9,0c-1.7,0-3.8-0.3-4-2.2
		c-0.3-2.4,2-1.5,3.3-1.7c1-0.1,2.3-0.1,2.6-1.1c1.6-7.2,2.7-2.7,4.5,0c1.3,2,4.1,1.6,6,1.4c10.8-0.7,21.6,0,32.4-0.3
		c1.4,0,3.4,0.8,4.1-0.8c0.8-1.7-0.9-3-1.9-4.3c-0.8-1-2.4-1.6-1.8-3.2c0.1-0.4,1.1-0.6,1.7-0.6c1.9,0,2.1,1.6,2.9,2.9
		c1.3,1.9-0.8,5.7,3.6,6.1C562.2,352.5,562.8,352.1,562.7,345.3z"/>
	<path class="st2" d="M495.5,358.5c5.3,3.6,11.2,3.6,17.2,3.6c16-0.1,31.9-0.1,47.9,0c3.1,0,6-0.1,8.3-2.4c0.7-0.7,1.4-1.7,2.4-0.5
		c0.9,1,0,1.8-0.5,2.6c-1,1.8-2.5,2.3-4.5,2.3c-20.9-0.1-41.9,0-62.8-0.1c-1.8,0-3.6-0.8-5.4-0.9C494.9,363,494.6,361.3,495.5,358.5
		z"/>
	<path class="st2" d="M497.9,346.9c0.6-4.7,3.9-8,6-11.9c4.8,3,5,5.3,0.7,8.6c-1.5,1.2-2.5,2.5-3.5,4.1
		C499.6,349.8,498.5,349.2,497.9,346.9z"/>
	<path class="st1" d="M544,263c-1.9-0.4-5.3,1.2-5.5-1.3c-0.2-2.4,1.8-5,2.9-7.4c0.2-0.4,1.2-0.8,1.6-0.7c1.1,0.2,1,1.3,0.6,2
		c-1.4,2.4,0,4.5,0.4,6.6C544.1,262.4,544.1,262.7,544,263z"/>
	<path class="st2" d="M526,296.9c-0.2-2.1,1.1-3.5,2.3-4.9c2.9,2.2,2,6.2,4.1,8.8c0.1,0.1-0.8,1-1.3,1.3c-0.1,0.1-0.9-0.4-1-0.6
		C529.8,299,526.6,299.1,526,296.9z"/>
	<path class="st2" d="M518,310.9c0.2-1.5,0.7-3,2-4c1.7-1,3-1,4,1c1.2,2.4-0.9,2.7-2.1,3.6C520.4,312.8,518.7,314.2,518,310.9z"/>
	<path class="st2" d="M540,302c-0.3,2.3-2.2,4-2.4,6.4c-0.1,1.2-1.5,1.9-2.7,1.3c-1.1-0.5-0.8-1.7-0.4-2.6
		C535.6,304.6,535.3,300.5,540,302C540,302,540,302,540,302z"/>
	<path class="st2" d="M511.7,339.4c0.7,0.8,1.1,1.2,1.2,1.6c0.6,2,2.6,3.9,1,6.3c-0.4,0.5-1.2,0.6-1.7-0.1
		C510.6,344.8,510.6,342.3,511.7,339.4z"/>
	<path class="st2" d="M553,325c0.8,0.4,1,1.1,1,1.9c0.2,2.4,0.9,5.1-3,5.1c-0.1-1.9-0.2-3.8-0.4-5.7
		C550.4,323.8,551.8,324.6,553,325z"/>
	<path class="st2" d="M551.6,334c0.3,2-0.7,2.7-2.1,2.8c-1.3,0.2-2.3-0.3-2.3-1.8c-0.1-2,1-2.9,2.9-3.1
		C552.1,331.8,550.2,334.2,551.6,334z"/>
	<path class="st2" d="M509,326c0-0.8,0.2-1.6,1.1-2c1.9,0.2,2.9,1.2,2.9,3.1c0,0.9-0.4,1.7-1.3,1.7C509.8,328.8,509.1,327.6,509,326
		z"/>
	<path class="st2" d="M562,341c-0.3,1.1,0.4,3.1-1.8,2.4c-1.1-0.3-2.6-1.5-1.8-3C559.8,338.1,560.8,341,562,341
		C562,341,562,341,562,341z"/>
	<path class="st2" d="M555,564c0.4-2.9,2.3-4.9,4-7.1c1.6,0.6,2.3-0.6,3.2-1.6c1-1.2,1.8-2.9,3.9-2.3c-0.2,1.5,0.3,2.8,1,4
		c-0.1,1.6-0.9,2.9-2,4c-1.4,3-3,5.9,1,8.5c1.6,1.1,0.9,3.6,1,5.5c-2.2,0-3.6-2.6-6-2c-0.7-1.9-2-2.6-4-1.8
		C554.9,569.2,557.1,566,555,564z"/>
	<path class="st2" d="M566,553c-2.3,0.9-2.9,3.4-4.5,5c-0.6,0.6-0.8,2.2-2.1,1.1c-0.5-0.4-0.4-1.5-0.5-2.3c0.6-2.7,2.2-4.9,4-6.9
		c0.5-0.4,1.1-0.7,1.5-1.2c0.7-0.8,1.2-2.2,2.6-1c0.9,0.8,0.6,1.6,0,2.6C566.6,551.2,566.4,552.1,566,553z"/>
	<path class="st2" d="M565,561c-0.1-1.7,0.2-3.2,2-4c1.2,0.1,3.1-0.2,2.8,1.8C569.3,561.6,566.9,560.9,565,561z"/>
	<path class="st2" d="M510.1,567.9c5.1,5.9,7.6,13.4,11.7,19.8c1,1.5,1.3,3.4,3.1,4.3c2.2,0.9,2.9,2.7,2.9,4.9
		c3.7,7.9,3.7,7.9-5.2,7.9c-17.2,0-34.5-0.1-51.7,0.1c-3.6,0-7.1-2.2-10.7-0.1c-1.9-1.1-2.1-2.8-1.9-4.7c1.5-3.1,3.8-3.3,7.2-1.5
		c-0.7-2.2-1.8-3.9-0.6-5.7c1.3-2,0.9-4.1,0.4-6.2c-0.5-2.1,0.1-4.2,2.2-5c2.4-1,3.8,0.6,4.5,2.7c0.7,2.2,2.3,2.5,4.3,2.5
		c6.1,0,12.3-0.3,18.4,0.2c0.5,0,1.1,0.2,1.5-0.1c3.8-2.9,6.6-3.2,9.4,1.7c0.9,1.6,4.6-0.2,6.1-1.5c1.6-1.4-0.2-3.1-1.5-4
		c-2.4-1.7-3.3-5.4-7.2-5.1c-0.8,0.1-1.4-1.3-1.3-2.4C501.8,573.3,507.3,568.4,510.1,567.9z"/>
	<path class="st40" d="M511.9,640.7c2.3,0.1,4.7,0,6.9,0.4c3.5,0.6,4.9,3.3,3.4,6.1c-2.2,4.1-16.6,11.6-21.3,11
		c-1-1.6-1.4-3.1,0-4.7c0.8-3.1,4.2-3.2,6.1-5.2c-3.7-0.1-7.3,2.2-10.9-0.2c-3-0.7-4.9-2.3-4.4-5.7c-0.8-2.6,1-4.4,2.2-6.3
		c2.5-3.9,5-7.8,7.5-12.6c-5.3,1.9-9.2,4.8-13.1,7.6c-1.8,1.2-3.3,2.9-5.6,3c-1.5,0.1-3.1,2.1-4.5,0.2c-1.3-1.8-0.2-3.6,1-5
		c7.9-8.5,18-13.5,28.8-16.8c4.1-1.3,6.5,2.6,4.2,7.1c-3.1,6.2-6.8,12.1-10.2,18.2c-0.5,0.8-0.9,1.7-1.7,3
		C504.5,640.7,508.2,640.7,511.9,640.7z"/>
	<path class="st41" d="M459.2,600c0.4,1.6,0.8,3.3,1.2,4.9c0.1,4.3,0.3,8.6,0.3,12.9c0,2-0.4,4.1-3,4.5c-2.3,0.3-3.2-1.3-3.6-3.3
		c0.7-5.6,0.4-11.2-1.1-16.7c-1-3.5-2.2-7.4-6.6-7.7c-4.4-0.3-7.3,2.4-9.3,6.2c-1.9,3.7-2.8,7.7-4,11.7c-1.2,1.2-2.4,2.7-4.2,1.5
		c-1.3-0.9-1.7-2.4-1.6-4c0.1-1.6,0.4-3.3,0.6-4.9c1.8-4.7,4.2-9.1,7.3-13.1c5-3.9,10.5-5.1,16.6-2.8c4.5,1.6,6.3,5.4,7.7,9.5
		C459.4,599.1,459.4,599.5,459.2,600z"/>
	<path class="st2" d="M557,571c1.2-0.7,1.6-2.6,3.5-2.2c0.9,1.3,0.3,2.8,0.5,4.2c-0.6,1.1-1.1,2.5-2,3.4c-2.4,2.3-6.1,3.9-2.2,8.1
		c0.9,1-0.3,2.8-1.8,3.5c-1.7,0.3-3.3,0.7-5,1c-4,0-3.9,4.1-6,6c-1.7,0.2-3.6-0.7-5,1c0.2,1,0.8,2,0,3c0.2,1.6-1.4,2-2,3
		c-1.1,0.9-2.2,0.9-3.2-0.1c-0.3-2.4,2.1-3.7,2.3-5.9c2.3-3.7,4.6-7.4,6.9-11.1c0.8,0.1,1.8,0.2,2.2-0.7c0.4-0.9-0.6-0.9-1.1-1.3
		c3-5.3,6-10.7,8.9-16c1.7,1.4,0.7,3.7,1.6,5.4C555.8,572.6,556,571.2,557,571z"/>
	<path class="st42" d="M482.7,634c6.1-5.7,13.2-9.7,22-13.7c-4.8,8.1-8.9,15.1-13,22C488.2,640.2,485.9,636.6,482.7,634z"/>
	<path class="st1" d="M527.9,597c-1-1.6-1.9-3.3-2.9-4.9c0.2-2.8,2.5-3.9,4.2-5.6c1.2,1.3,0.7,2.3,0.3,3.4c-1.1,3.1,0.8,4.1,3.2,3.6
		c2.6-0.6,3.4,0.1,3.2,2.5C533.1,594.9,530.7,598,527.9,597z"/>
	<path class="st43" d="M496.2,648c4.7-0.3,9.3-1.2,15.4-0.4c-4.2,2.3-7.4,4.1-10.5,5.9C498.7,652.3,497.4,650.2,496.2,648z"/>
	<path class="st1" d="M547,631c-0.7-1-1.3-2-2-3c0.1-0.9-0.3-2.4,0.9-2.5c1.9-0.2,2.8,1.6,3.7,2.9c0.8,1.1,2.2,2.7,0.8,4
		C549.1,633.4,548.2,631.3,547,631z"/>
	<path class="st1" d="M539.1,609.5c1.1,1.4,2.1,2.8,3.1,4.2c0.6,0.8,2.3,1.6,1,2.8c-1.2,1.1-2.9,0-3.4-0.9c-1-1.8-1.3-3.9-1.8-5.8
		C538.3,609.7,538.7,609.6,539.1,609.5z"/>
	<path class="st1" d="M555.3,643.7c0.4-2.5,0.2-4.7,2.9-5.6c1.3-0.4,1.4-4.1,3.3-2c1.4,1.5-1.2,2.6-2.5,3.5
		C557.6,640.6,558.5,643.4,555.3,643.7z"/>
	<path class="st2" d="M533.8,601.9c1.1,0,2.1,0,3.2,0.1c0.9,0.1,2.2-0.2,2.4,0.9c0.2,1-0.9,1.1-1.7,1.1c-1.3,0-2.5,0-3.8,0.1
		C532.8,603.4,532.9,602.7,533.8,601.9z"/>
	<path class="st1" d="M556,639.1c-2.3-0.6-3.4-1.6-2.6-3.6c0.1-0.4,0.9-0.9,1-0.8C555.9,635.8,556,637.4,556,639.1z"/>
	<path class="st1" d="M49,207c23,0,46,0,69,0c-1,3.8-4.1,4.2-7.3,4.6c-2.6,0.3-5.6,0.3-7.4,2.3c-1.7,1.9-3.1,4.4-1.3,7.2
		c0.8,1.3,1.5,2.8,0,4c-1.6,1.2-2.3-0.3-3.2-1.2c-1.4-1.5-3.1-1.3-4.6-0.4c-1.5,0.9-1.4,2.5-0.9,4c0.4,1.3,3.1,2.1,1.6,3.6
		c-2.1,2.1-1.8,6-5.4,6.8c-2.4,0.5-3.6,2.4-4.3,4.5c-1,3-2.7,6.2-5.7,6c-3.2-0.3-6-2.7-6.8-6.4c-1.1,0.2-0.7,1.3-1.3,1.8
		c-1.1,1.1-2.6,2.5-3.8,1.5c-1.6-1.3-0.4-3,0.8-4.3c3.3-3.7,3.6-15.1,0.4-19.5c-1.7,2.8-3.4,5.5-4.9,8.3c-0.6,1.1-1,2.1-2.5,1.7
		c-0.6-0.2-7.4-9-7.2-9.6C57.1,215.4,53.3,211.1,49,207z"/>
	<path class="st1" d="M82.2,267.1c-1.8,1.7,3.3,5.2-0.8,6c-1.2,0.2-2.7-4.4-3-7c-0.2-1.7,2-2.9,3.6-2.6
		C83.9,264,82.4,265.6,82.2,267.1z"/>
	<path class="st1" d="M90.2,252.4c-1-2.9,0.9-6-3.3-9c3.7,0.4,6.9-0.3,7.5,1.6C95.4,248,91.3,249.6,90.2,252.4z"/>
	<path class="st1" d="M75.1,263.7c-1.2,0.1-1.9-0.2-1.9-0.9c-0.1-2-1.4-3.2-2.7-4.5c-0.4-0.4-0.3-1.6-0.1-2.3
		c0.3-0.8,1.1-0.6,1.7-0.2c2,1.6,3.6,3.5,3.9,6.1C76,262.8,75.6,263.4,75.1,263.7z"/>
	<path class="st1" d="M112,231c-1.7,0-3.5-0.1-3.9-2.2c-0.4-2.2,0.8-4.1,1.4-6.1c0.1-0.2,0.9-0.4,1.3-0.3c0.8,0.1,1.2,0.9,0.9,1.5
		C110.4,226.3,112.1,228.6,112,231C112,231,112,231,112,231z"/>
	<path class="st1" d="M65.9,236.2c-0.3,2-1.4,3.1-3.1,3.6c-0.9,0.2-1.8-0.4-1.4-1.3c0.7-1.6,0.1-4.2,2.6-4.6
		C65,233.7,65.6,235.3,65.9,236.2z"/>
	<path class="st1" d="M51.9,228.4c3.1,1.9,4.9,3,5,6.3C54.6,233.2,53,232,51.9,228.4z"/>
	<path class="st1" d="M41,207c1.3,0,2.7,0,4,0c0,1.6-0.2,3.1-1.6,4.3C41.7,210.4,41.3,208.8,41,207z"/>
	<path class="st1" d="M89.1,262.5c0.4,2-0.2,3.5-2.4,4.4C86.1,264.4,87.4,263.4,89.1,262.5z"/>
	<path class="st1" d="M103.9,233.4c1.5,0.8,2.2,2,1.8,3.5c-0.1,0.7-0.9,0.9-1.6,0.4C102.9,236.2,102.6,235,103.9,233.4z"/>
	<path class="st1" d="M121,207c1.2,0.2,2.8-0.7,3.5,0.8c0.5,1.1-0.6,1.7-1.4,2.2C121.7,209.5,121,208.5,121,207z"/>
	<path class="st2" d="M561.9,414.2c-0.6,2.7-3.6,1.6-5.1,2.9c-0.9,0.8-1.6-0.6-1.7-1.6c-0.2-2.3,1-3.9,3.2-4.3
		C560.2,410.9,561.1,412.5,561.9,414.2z"/>
	<path class="st2" d="M562.3,408.5c-1.8-0.6-3.4-1.3-3.2-3c0.3-2.5,2.3-3.5,4.4-4c1.4-0.3,1.6,1.1,1.3,1.9
		C564.2,405.2,564.6,407.7,562.3,408.5z"/>
	<path class="st2" d="M544.9,423c1.7-0.7,3.6-1.9,4.6,0.6c0.6,1.6-1,2.4-2.3,2.7C543.7,427.2,545.5,424.2,544.9,423
		C544.9,422.9,544.9,423,544.9,423z"/>
	<path class="st1" d="M550.1,309.4c6.4,1.1,7.8,4.1,6.6,8.9C552.9,316.7,553.2,312.6,550.1,309.4z"/>
	<path class="st1" d="M572.6,345.5c-0.4,1-0.6,2.5-1.8,2.1c-2.1-0.8-3.7-2.3-3.6-4.8c0-1,0.4-2.4,1.6-2
		C570.8,341.5,571.9,343.4,572.6,345.5z"/>
	<path class="st1" d="M570.4,331.5c2,0.5,2.9,1.5,2.4,3.3c-0.4,1.4-0.7,3.5-2.3,3.4c-2.2-0.2-1.9-2.8-2.3-4.4
		C567.7,332.1,569.5,331.9,570.4,331.5z"/>
	<path class="st1" d="M545.9,297.7c-0.1,1.2-0.4,2.1-1.4,1.8c-1.6-0.6-2-2.2-2.3-3.6c-0.2-0.9,0.3-1.8,1.4-1.4
		C545,295.1,545.9,296.3,545.9,297.7z"/>
	<path class="st1" d="M563.3,334.1c0.9,2,3.6,3.3,2.3,6c-0.1,0.3-1,0.5-1.2,0.3C561.9,338.7,563.6,336.3,563.3,334.1z"/>
	<path class="st1" d="M561.9,327.5c0,0.9-0.4,1.8-1.3,1.8c-0.9,0-1.4-0.8-1.4-1.7c0-0.7,0.3-1.3,1-1.4
		C561.2,326,561.7,326.6,561.9,327.5z"/>
	<path class="st2" d="M544,595c0.4-1.7,0.5-3.6,1.3-5.2c1-2.2,2.8-2.6,4.7-0.8c-0.1,3.3-5.5,3.9-4,8C544.7,597,544,596.3,544,595z"
		/>
	<path class="st2" d="M539,599c-0.3-1-1.6-2,0-3c1,0.2,2.6-0.4,2.6,1.3C541.5,598.6,540.2,598.9,539,599z"/>
	<path class="st44" d="M311.2,513.5c-6.4,8.6-14.9,10.6-24.7,7.5c-7.1-2.2-11-7.3-12.3-14.3c-1.2-6.3-0.5-12.6,1.4-18.7
		c1.1-3.4,3.3-5.1,6.8-4c3.2,1.1,4,3.6,2.9,6.8c-1.3,4-1.7,8.1-1.4,12.3c0.3,4.7,2.7,7.8,7.3,8.8c4.8,1,9,0.1,11.7-4.5
		c2.3-4,3.2-8.4,3.1-12.9c0-3.6,0.9-6.4,5-6.6c4.4-0.2,5.5,2.7,5.7,6.5c0.1,3.8,0.5,7.6,2.2,11.2c2.7,5.7,6.4,7.7,12.5,6.4
		c4.9-1,7.4-4.3,7.7-10.2c0.2-3.7-0.6-7.3-1.6-10.8c-0.9-3.3-0.5-6.2,3.3-7.1c3.6-0.9,5.5,1,6.5,4.4c1.5,5.2,2.4,10.4,1.8,15.8
		c-0.9,7.8-4.4,14-12.2,16.7c-8,2.8-15.7,2.4-22.3-3.9C313.4,515.9,312.4,514.8,311.2,513.5z"/>
	<path class="st45" d="M391.3,430.9c10.9,0,19.7,8.7,19.6,19.5c-0.1,10.4-9,19.3-19.5,19.4c-10.5,0.1-19.4-8.7-19.5-19.2
		C371.8,439.5,380.3,430.9,391.3,430.9z"/>
	<path class="st0" d="M212.8,450.2c0-11,8.6-19.5,19.6-19.4c10.6,0.1,19.3,8.7,19.3,19.3c0,10.6-9.2,19.7-19.8,19.5
		C221.3,469.5,212.8,460.8,212.8,450.2z"/>
	<path class="st46" d="M269.2,399.4c1.5,0.2,2.9,0.6,4,1.7c3.1,3.1,6.2,6,9.2,9.2c2.1,2.2,2.5,4.8,0.3,7.2c-2.2,2.4-5,2.1-7.1,0.2
		c-3.6-3.2-6.9-6.7-10.2-10.3c-1.3-1.4-1.6-3.2-0.6-5.1C265.8,400.4,267.3,399.7,269.2,399.4z"/>
	<path class="st47" d="M342.4,419c-2.4,0.1-3.8-0.9-4.8-2.6c-1-1.8-1-3.6,0.4-5.1c3.5-3.7,7.1-7.4,10.9-10.9
		c1.9-1.7,4.4-1.5,6.3,0.3c1.6,1.4,2.6,3.5,1.3,5.3c-3.4,4.9-7.7,9-12.6,12.5C343.5,419,342.7,419,342.4,419z"/>
	<path class="st48" d="M274.8,634.4c-0.1,1.8-0.9,3.3-2.8,3.4c-2.2,0-2.9-1.7-3.3-3.7c-1.8-11-3.8-22-5.6-32.9
		c-3.6-21.3-7.1-42.7-10.7-64c-0.1-0.5-0.2-1-0.3-1.5c-0.3-2.1,0.4-3.9,2.5-4.2c2.1-0.2,3.1,1.2,3.4,3.4c2.5,15.3,5.2,30.5,7.7,45.8
		c2.9,17.1,5.6,34.1,8.5,51.2C274.4,632.7,274.6,633.5,274.8,634.4z"/>
	<path class="st4" d="M146,572.9c-0.5-2.6,0.7-5.1,3.3-6.3c2.4-1.1,5.3-1.4,7.5,0.7c1.7,1.7,3,1.4,4.7,0.1c3.2-2.4,6.7-4.1,10.1-0.3
		c2.3,2.5,2.1,8.3-0.8,11.5c-2.1,2.4-4.5,4.5-7,6.4c-2.2,1.7-11.7-1.2-14.4-4.3C146.6,577.5,146,576.4,146,572.9z"/>
	<path class="st2" d="M459.2,600c-0.2-0.2-0.3-0.5-0.2-0.9c-0.2-0.3-0.5-0.6-0.3-0.9c3.4-8.1,4.3-16.8,6.6-25.2
		c0.2-0.8,0.6-1.5,1.1-2.2c0.8-1.3,3.2-2,2.2-4c-1-1.9-3.1,0.1-4.5-0.8c2.4-6.7,6.8-12.4,10-18.7c3.4-6.6,7.3-12.9,10.8-19.4
		c0.9-1.7,1.9-2.8,3-0.7c7,13.8,16.2,26.4,22.3,40.7c-3.8,1.1-4.3,5.3-7.2,7.3c-0.6,0.4-0.7,1.1-0.2,1.7c0.5,0.7,1.3,1.1,2.2,0.5
		c3.2-2.2,4.1-1.4,3.6,2.4c-0.2,1.4,1.5,1.6,2.4,2.1c2.2,1.3,3.4,3.3,3,5.8c-0.4,2.9-2.6,1.6-4.3,1.5c-0.4,0-1,0.3-1.3,0.6
		c-2.9,3.9-4,0.9-4.9-1.4c-1.2-3.1-2.2-4.9-4.6-0.9c-0.7,1.1-1.7,1.6-3,1.3c-7.1-1.6-14.2-0.6-21.3-0.6c-2.4,0-3.4-0.3-3.4-2.7
		c0-1.8-0.5-3.7-2.7-3.2c-2,0.5-2.8,2.6-1.8,4.4c1.6,2.8,1.2,4.9-0.8,7.2c-2,2.3,3.4,3.8,0.9,5.9c-1.9,1.5-3.5-2.8-5.8-1
		C460.2,599.2,459.7,599.6,459.2,600z"/>
	<path class="st1" d="M529.5,530c7.5,0,15,0,22.5,0c1.5,0,3.3-0.1,3.5,1.9c0.2,1.7-1.4,2.2-2.6,2.6c-2.2,0.7-3.9,1.5-4.1,4.2
		c-0.2,2.3-2.3,2.9-4.3,3.6c-3.5,1.2-5.2,3.5-4.7,7.5c0.5,3.6,0,7.3,0.1,11c0.2,5.9-4.8,4.3-7.6,4.8c-2.2,0.4-6.1,0.8-6.5-3.9
		c-0.3-4.1-2.9-5.1-6.6-2.4c-2.6,1.9-3.5,1.5-3.3-1.6c0.1-3.4-2.8-4.7-4.6-6.8c-1.2-1.4-2.3-3-0.4-4.2c2.1-1.3,2.2,1.3,2.9,2.3
		c1.1,1.5,1.3,4.4,4,3.6c3.1-0.9,2.1-3.9,1.9-6c-0.2-3.5-3.2-6.3-2.1-10.3c0.5-1.8-1.9-2.9-3.6-2.1c-2.6,1.2-4.9-0.3-7.3-0.3
		c-1.6,0-3.3-0.9-3.1-2.6c0.1-1.6,2-1.4,3.3-1.4C514.6,530,522.1,530,529.5,530z"/>
	<path class="st2" d="M463.9,566c1.9-1,3.7-3.3,6-0.6c0.9,1.1,1.7,2.8,0.4,3.4c-6.2,3-3.4,9.6-6.1,14.1c-1.6,2.6-2.6,5.8-1.3,9.4
		c1.3,3.4-4.2,3.6-3.9,6.8c-1.9-3.7-3.9-7.3-7.2-10c1.2-7.8,6.7-13.6,10.1-20.4C462.4,567.7,463.2,566.9,463.9,566z"/>
	<path class="st2" d="M557,571c-0.3,0.9-0.6,1.9-0.9,2.8c-0.3,0.8-0.8,1.7-1.7,1.5c-1.1-0.2-1.3-1.3-1.3-2.3c0-2,0-4,0-6
		c0.7-1,1.3-2,2-3c1.7-0.7,3.2-0.6,2.6,1.7C557.1,567.5,557.1,569.2,557,571z"/>
	<path class="st1" d="M507,547.1c0,0,0.2,0.9-0.1,1.6c-0.6,1.6-0.9,4.4-3,3.6c-1.8-0.7-0.6-2.8,0.4-4.1c0.9-1.3,0.5-2.4,0.1-3.7
		c-0.3-1-0.8-2.6,0.7-2.9c1.7-0.3,1.9,1.4,2,2.7C507,544.9,507,545.6,507,547.1z"/>
	<path class="st1" d="M495,526.1c1.9,1.9,3.8,3.5,5.4,5.3c1,1.1-0.2,2.2-0.7,3.1c-0.3,0.5-1,0.9-1.6,0.9c-0.8,0-1-0.8-1-1.5
		c0.1-2.5-0.3-4.6-3.2-5.4c-0.2-0.1-0.4-0.9-0.3-1.2C493.9,526.9,494.5,526.6,495,526.1z"/>
	<path class="st1" d="M552.5,549.5c0-4.1,1.6-6.2,2.6-8.4c0.7-1.5,2.1-0.5,3,0.2c1.2,0.9,1.1,2.2,0,2.9
		C556.3,545.4,554.7,546.7,552.5,549.5z"/>
	<path class="st1" d="M536.9,587.4c-1.6-0.2-2-1.2-1.9-2.2c0.3-2.9,3.6-2.9,5.1-4.7c0.3-0.4,1.8,0.8,1.3,1.5
		C540.1,584,538.4,585.7,536.9,587.4z"/>
	<path class="st2" d="M544,583c1,0,1.8-2.3,2.7-0.7c0.8,1.3-0.1,3-1.2,4c-1.5,1.3-2.3,0.3-2.6-1.3C543,584.1,543.3,583.4,544,583z"
		/>
	<path class="st1" d="M532.2,581.7c-1.4-0.4-1.2-1.7-1.2-2.8c0-1.2,0.4-2.6,1.8-2.4c1.8,0.3,1,2.1,1.1,3.3
		C534,580.8,533.7,581.8,532.2,581.7z"/>
	<path class="st1" d="M550,547.9c0,1-0.1,2.2-1.2,2.4c-1.6,0.2-1.6-1.3-1.7-2.4c0-0.9-0.3-2.2,1-2.4
		C549.5,545.4,549.8,546.7,550,547.9z"/>
	<path class="st1" d="M565.1,528.3c1.2,0.3,2.1,1,2.3,2.2c0,0.3-0.9,1.2-1.3,1.1c-1.1-0.1-2.4-0.4-2.6-1.8
		C563.3,529,564.1,528.4,565.1,528.3z"/>
	<path class="st1" d="M550.5,559.6c-0.9-0.4-1.8-1-1.9-2.1c0-0.9,0.8-1.4,1.7-1.4c1.3,0,1.6,0.9,1.6,2
		C551.9,559,551.7,559.8,550.5,559.6z"/>
	<path class="st1" d="M521.1,573.3c1.2-0.2,1.7,0.5,1.8,1.3c0.1,1-0.1,2.1-1.4,2.1c-0.7,0-1.2-0.4-1.3-1.2
		C520,574.6,520,573.6,521.1,573.3z"/>
	<path class="st1" d="M529,280c1.6-2.7,3.3-2.7,4.9,0C532.3,281.7,530.7,281.7,529,280z"/>
	<path class="st1" d="M532.3,267.6c-1.8,3-0.2,6.6-3.5,7c-2.8,0.3-4.2-1.4-1.1-3.7C528.9,270.1,530,269.3,532.3,267.6z"/>
	<path class="st1" d="M529.6,260.6c-0.7,1.3-0.3,3.5-2.4,4c-1.4,0.3-2.2-0.9-2.1-2.2c0.1-1.5,0.6-3,2.4-3.3
		C528.6,258.9,529.7,259.1,529.6,260.6z"/>
	<path class="st1" d="M538.6,268.3c0.2,1.5-0.8,1.7-1.8,1.6c-1.6-0.1-2.3-1.4-2.4-2.6c-0.2-1.5,0.9-2.8,2.3-2.5
		C538.4,265,537.9,267.1,538.6,268.3z"/>
	<path class="st1" d="M500.5,219.9c-1.3-0.1-2.2-0.8-2.3-2.2c-0.1-1,0.5-1.6,1.4-1.6c1.5,0.1,2.6,1,2.7,2.4
		C502.4,219.4,501.4,219.9,500.5,219.9z"/>
	<path class="st2" d="M489.9,538.7c-1.6,4.3-0.8,6.5,4.2,7.9c3.4,1,2.2,6.4,4.2,9.5c1,1.7-1.2,2.8-2.5,3.7c-1,0.7-1.9,1.6-3.1,0.7
		c-0.9-0.7-0.8-1.8-0.6-2.8c0.4-2.1,1.9-4.9-0.8-5.6c-2.5-0.6-2.7,3.1-3.9,4.8c-0.9,1.4-0.3,3.9-2.9,3.9c-2.1,0-2.7-1.9-3.1-3.4
		c-0.7-2.5,1.2-3.5,3-4.5c5.3-3.1,6-5.9,2.4-8.7c-1.9-1.5-3.5-1-3.5,1.1c0,6.2-7.1,8.2-7.7,13.9c-0.1,0.7-1.4,0.8-2.2,0.5
		c-1.2-0.4-1.4-1.4-1.2-2.4c1.4-5.3,4.7-9.8,7.4-14.4c1.1-1.8,2.3-3.4,2.9-5.5c0.6-2.3,2-3.9,4.7-3.4
		C489.7,534.6,489.2,537.1,489.9,538.7z"/>
	<path class="st2" d="M501.1,571.5c-1.8,0.2-2.1-0.6-2-1.5c0.4-2.8,2.6-4.5,4.3-6.3c0.5-0.5,1.5,0.7,1.4,1.5
		C504.6,568.2,501.5,569.1,501.1,571.5z"/>
</g>
</svg>
